<?xml version="1.0" encoding="utf-8"?>
<!-- Generator: Adobe Illustrator 24.0.1, SVG Export Plug-In . SVG Version: 6.00 Build 0)  -->
<svg version="1.1" id="Calque_1" xmlns="http://www.w3.org/2000/svg" xmlns:xlink="http://www.w3.org/1999/xlink" x="0px" y="0px"
	 viewBox="0 0 1500 1500" style="enable-background:new 0 0 1500 1500;" xml:space="preserve">
<style type="text/css">
	.st0{fill:none;}
	.st1{fill:#FFFFFF;}
	.st2{fill:#CE000C;}
</style>
<g>
	<title>New Super Mario Bros Wii</title>
	<rect id="canvas_background" x="-30.3" y="449.6" class="st0" width="728" height="546.4"/>
</g>
<g>
	<title>New Super Mario Bros Wii</title>
	<path id="path27283" d="M1422,752.2l-286.5,0V734c0-8.9-2.9-17.4-8.2-24.8c5.3-9.1,8.2-19.5,8.2-30.4c0-16.5-6.6-31.5-17.4-42.4
		l-47.7-47.7c-10.7-10.8-25.4-17.5-41.6-17.5H902.1c-23.3,0-38.9,10.7-47.5,25l-7.4-7.4c-11.2-10.9-26.8-17.7-44-17.7H621.1v15.5
		c-11.7-11.3-28.4-18.4-46.9-18.4c-32.7,0-59.7,22.2-63.7,50.8l-25.7-8.5l36.5-35.3l-47-7.3l46-61.7L441.3,534l0.2-41.1l-47.9,24
		l-14.3-58.5l-40.9,60.3l-35-22.6l-18.8,40.6l-61.3-23.6l16.2,55.5l-50.4,8.4l19,34.2l-77.8,25.2l65.1,21.4l-36.5,35.3l47,7.3
		l-36.7,49.2c-3-0.5-6-0.8-9.2-0.8c-11.7,0-22.9,3.4-32.5,9.6c-9.6-6.2-20.8-9.6-32.5-9.6c-33.6,0-60.9,27.9-60.9,62.1v188.4
		l47.8,47.8h466.6v-18.2c11.8,13.1,29.1,21.3,48.4,21.3c20.7,0,39.1-9.5,50.8-24.2l21.1,21.1h70.3v-0.3c11.6-1,22.3-4.8,31.3-10.8
		l11,11h128.5v-18.2c11.8,13,29.1,21.3,48.4,21.3c23.4,0,43.9-12.2,55.2-30.3l11.3,11.3c11.7,11.7,28.1,19,46.2,19
		c14.6,0,28.1-4.7,38.8-12.7l9.6,9.6h70.3v-17.1l1.8,1.8c11,11.4,26.4,18.4,43.3,18.4c11.7,0,22.9-3.4,32.5-9.6
		c9.6,6.2,20.8,9.6,32.5,9.6c13.5,0,26-4.5,36-12.1l9,9h124.8V799.9L1422,752.2z"/>
	<path id="path27287" class="st1" d="M454.6,650.3l56.8-18.4l-49.1-16.1l33.4-32.4l-42.9-6.7l34.4-46.2l-57.9,20.4l0.2-38.6
		l-43.9,22L374,487.4l-32.4,47.7l-33.3-21.5l-17.7,38.3L241.5,533l13.2,45.2l-47,7.9l17.8,32.1l-56.8,18.4l49.1,16.1l-33.4,32.4
		l42.9,6.7L192.9,738l57.9-20.4l-0.2,38.5l43.9-22l11.5,46.9l32.4-47.7l33.3,21.4l17.7-38.2l49.2,18.9l-13.2-45.2l47-7.9
		L454.6,650.3z"/>
	<path id="path27291" class="st2" d="M308.9,765.4l-10-40.6l-41.8,20.8l0.2-37.2l-46.5,16.3l28.1-37.7l-40.7-6.3l31.8-30.8
		l-40.4-13.3L235,622l-17.2-31l45.1-7.6l-11.6-39.6l42.6,16.4l17.1-37l32.3,20.8l27.7-40.8l9.9,40.6l41.8-20.9l-0.2,37.2l46.5-16.4
		l-28.1,37.7l40.6,6.4l-31.8,30.8l40.4,13.3L445,646.6l17.2,31l-45.1,7.6l11.6,39.7l-42.6-16.4l-17.1,37l-32.3-20.8L308.9,765.4
		L308.9,765.4z"/>
	<path id="path27303" class="st1" d="M356.7,604.6l-19.1,2.1c-8.6,1-17.5,8-20,15.6l-11.1,35.1c-2.4,7.7,2.5,13.1,11.1,12.2
		c0,0,32.3-3.6,33.3-3.7c0.3-0.8,4.6-14.6,4.9-15.4c-1,0.1-31.6,3.5-31.6,3.5l2.6-8.3l17.3-1.9c8.6-1,17.5-8,20-15.6l3.6-11.4
		C370.3,609.1,365.2,603.6,356.7,604.6 M347.4,628.5l-15.6,1.7l0.1-0.5l2.5-7.8l15.6-1.7L347.4,628.5z M300.9,590.6
		c-0.3,0.9-16.8,52.7-16.8,52.7s-6.9-49.7-7.1-50c-0.5,0.1-16.6,1.8-17.5,2c-0.3,0.9-26.1,82.4-26.4,83.3c0.9-0.1,16.3-1.8,17.3-1.9
		c0.3-0.9,16.7-52.3,16.7-52.3l7.4,49.6c0,0,0.3-0.9,0,0c0.9-0.1,16.4-1.8,17.3-1.9c0.3-0.9,26.1-82.4,26.4-83.3
		C317.3,588.8,301.9,590.5,300.9,590.6 M432.9,595.9c-0.3,0.9-10.8,34.1-10.8,34.1c-3,10-10.3,17-10.3,17s-3.1-5.7,0.1-15.8
		c0,0,10.8-33.9,10.8-34.1c-0.9,0.1-15.5,1.7-16.4,1.8c-0.1,0.2-10.8,34.1-10.8,34.1c-3.1,9.1-10.3,16.9-10.3,16.9
		s-2.4-7.7,0.1-15.8c0,0,10.5-33,10.7-33.9c-0.9,0.1-15.5,1.7-16.4,1.8c-0.3,0.9-10.7,33.9-10.7,33.9c-4.2,13.1,0.8,22.6,3.5,27.1
		l18.6-2l1-1l4.3-4.7l1.8,3.7l0.7,1.1l18.9-2.1c14.9-11.3,16.7-16.7,20.9-29.9c0,0,10.6-33.2,10.8-34.1
		C448.4,594.2,433.8,595.8,432.9,595.9"/>
	<path id="path27305" class="st1" d="M1087.7,983.7h38.6v-43.1h-38.6V983.7z"/>
	<path id="path27317" class="st1" d="M733.8,852.1L733.8,852.1l0-41c0-23.8-21.7-43.1-48.4-43.1h-48.4v215.7h38.6V811.2l19.6,0v43.1
		h-9.8v43.1h9.8v43.1h-9.8v43.1c26.7,0,48.4-19.3,48.4-43.1h-0.1l0.1,0v-41h0c0-15.9-12.1-23.7-12.1-23.7S733.8,868.1,733.8,852.1"
		/>
	<path id="path27321" class="st1" d="M910.7,764.9c-26.7,0-48.4,20.7-48.4,46.2v129.4c0,25.5,21.7,46.2,48.4,46.2
		c26.7,0,48.4-20.7,48.4-46.2V811.2C959.2,785.6,937.5,764.9,910.7,764.9 M920.5,940.6h-19.6V811.2h19.6V940.6z"/>
	<path id="path27325" class="st1" d="M846.5,852.1L846.5,852.1l0-41c0-23.8-21.7-43.1-48.4-43.1h-48.4v215.7h38.6V811.2h19.6v43.1
		H798v43.1h9.8v86.3h38.6v-84.1h0c0-15.9-12.1-23.7-12.1-23.7S846.5,868.1,846.5,852.1"/>
	<path id="path27329" class="st1" d="M1023.4,764.9c-26.7,0-48.4,20.7-48.4,46.2v37.7c0,39.4,58.2,36.3,58.2,64.1v27.6h-19.6v-43.1
		H975v43.1c0,25.5,21.7,46.2,48.4,46.2c26.7,0,48.4-20.7,48.4-46.2v-37.8c0-39.4-58.2-36.1-58.2-64v-27.6h19.6v43.1h38.6v-43.1
		C1071.8,785.6,1050.2,764.9,1023.4,764.9"/>
	<path id="path27331" class="st1" d="M1313.1,811.2h38.6V768h-38.6V811.2z"/>
	<path id="path27333" class="st1" d="M1313.1,983.7h38.6V827h-38.6V983.7z"/>
	<path id="path27335" class="st1" d="M1367.5,811.2h38.6V768h-38.6V811.2z"/>
	<path id="path27337" class="st1" d="M1367.5,983.7h38.6V827h-38.6V983.7z"/>
	<path id="path27349" class="st1" d="M1258.6,940.6H1239V768h-38.6v172.5h-19.6V768h-38.6v172.5c0,25.5,20.2,46.2,45,46.2
		c12.8,0,24.3-5.5,32.5-14.2c8.2,8.8,19.7,14.2,32.5,14.2c24.9,0,45-20.7,45-46.2V768h-38.6V940.6z"/>
	<path id="path27353" class="st1" d="M300.9,810.1l-9.9-40.2c-6.5-3.1-13.9-4.9-21.7-4.9c-26.7,0-48.4,20.7-48.4,46.2v172.5h38.6
		v-43.1h19.6v43.1h38.6V811.2c0-6.9-1.6-13.4-4.5-19.3L300.9,810.1z M279.1,897.4h-19.6v-86.3h19.6V897.4z"/>
	<path id="path27357" class="st1" d="M803.3,587.1h-53.7V719h39.8v-92.6h13.8V675c25.5,0,46.2-19.7,46.2-44
		C849.5,606.8,828.8,587.1,803.3,587.1"/>
	<path id="path27361" class="st1" d="M685.4,721.9c26.7,0,48.4-18.9,48.4-42.3v-92.5h-41.5v92.5h-13.8v-92.5h-41.5v92.5
		C636.9,703,658.6,721.9,685.4,721.9"/>
	<path id="path27363" class="st1" d="M915,669.3h44.1v-32.6H915V669.3z"/>
	<path id="path27375" class="st1" d="M902.1,587.1c-28.1,0-39.8,19.8-39.8,39.4v53.2c0,19.6,11.7,39.4,39.8,39.4h57v-36.8h-57v-58.4
		h57v-36.8L902.1,587.1L902.1,587.1L902.1,587.1z"/>
	<path id="path27379" class="st1" d="M1058.6,662.7c8.1-8,13.2-19.2,13.2-31.6c0-24.3-19.3-44-43.1-44H975V719h39.8v-92.6h13.9V719
		h43.2v-32.5c0-0.1,0-0.2,0-0.3C1071.8,677,1066.8,668.6,1058.6,662.7"/>
	<path id="path27381" class="st1" d="M446.3,983.7h38.6V768h-38.6V983.7z"/>
	<path id="path27393" class="st1" d="M549.2,764.9c-26.7,0-48.4,20.7-48.4,46.2v129.4c0,25.5,21.7,46.2,48.4,46.2
		c26.7,0,48.4-20.7,48.4-46.2V811.2C597.6,785.6,575.9,764.9,549.2,764.9 M559,940.6h-19.6V811.2H559V940.6z"/>
	<path id="path27397" class="st1" d="M430.4,852.1L430.4,852.1l0-41c0-23.8-21.7-43.1-48.4-43.1h-48.4v215.7h38.6V811.2h19.6v43.1
		H382v43.1h9.8v86.3h38.6v-84.1h0c0-15.9-12.1-23.7-12.1-23.7S430.4,868.1,430.4,852.1"/>
	<path id="path27401" class="st1" d="M622.6,626.4c0-23.3-21.7-42.3-48.4-42.3c-26.7,0-48.4,18.9-48.4,42.3h0
		c0,23.1,16.9,40.3,41.3,40.3h14.2v12.9h-55.5c0,23.3,21.7,42.3,48.4,42.3c26.7,0,48.4-18.9,48.4-42.3c0-23.1-16.9-40.3-41.3-40.3
		h-14.2v-12.9H622.6L622.6,626.4z"/>
	<path id="path27405" class="st1" d="M160,764.9c-12.8,0-24.3,5.5-32.5,14.2c-8.2-8.8-19.7-14.2-32.5-14.2c-24.9,0-45,20.7-45,46.2
		v172.5h38.6V811.2h19.6v172.5h38.6V811.2h19.6v172.5h38.6V811.2C205.1,785.6,184.9,764.9,160,764.9"/>
	<path id="path27409" class="st1" d="M1093.9,787.7h3.4V771h6.3v-3h-15.9v3h6.2V787.7z"/>
	<path id="path27413" class="st1" d="M1116.2,783.4L1116.2,783.4l-5.5-15.4h-4.8v19.7h3.3v-15.2h0.1l5.5,15.2h2.8l5.5-15.2h0.1v15.2
		h3.3V768h-4.8L1116.2,783.4L1116.2,783.4z"/>
</g>
</svg>
