<?xml version="1.0" encoding="utf-8"?>
<!-- Generator: Adobe Illustrator 24.0.1, SVG Export Plug-In . SVG Version: 6.00 Build 0)  -->
<svg version="1.1" id="Calque_1" xmlns="http://www.w3.org/2000/svg" xmlns:xlink="http://www.w3.org/1999/xlink" x="0px" y="0px"
	 viewBox="0 0 2500 2500" style="enable-background:new 0 0 2500 2500;" xml:space="preserve">
<style type="text/css">
	.st0{fill:#999999;}
</style>
<path class="st0" d="M398.6,1782.9c-46.7-12.8-92.2-56.1-112.1-106.5c-13.3-33.8-61.5-203.5-230.4-811.5l-25.4-91.1l114.3-0.7
	c62.9-0.4,115.1,0.2,116.1,1.3c1,1.1,43.8,166.7,95.1,368.2l93.3,366.2l44.4-169.8c105.3-403.1,123.2-468.1,136.5-496.1
	c17.9-37.6,49.2-64.5,86.4-74.2c19.6-5.1,64.7-5.2,84.1-0.1c41,10.7,73,40.2,90.6,83.6c10.8,26.5,33.9,111.6,120.3,442.8
	c29.1,111.6,53.8,204.9,54.8,207.3c1.2,2.8,37.2-134.1,95.6-362.7l93.8-367.1h116.1c91.8,0,115.9,0.7,115,3.2
	c-0.6,1.8-25.3,90.5-54.9,197.1c-141.5,509.6-190.8,680.7-204.6,710.9c-23.6,51.3-63.2,86.9-110.2,99.2c-19.6,5.1-62.4,5.2-81.8,0.1
	c-27.1-7.1-42.6-16.4-65.9-39.7c-18.2-18.2-24-26.1-33.9-46.3c-16.2-33.1-31.9-87-131.5-453.2c-23.4-86.2-43.3-158.4-44.1-160.5
	s-25,82.1-53.8,187.2c-63.2,230.9-96.6,350.2-106.9,382.9c-22.4,70.5-63.1,115.6-116.7,129.5
	C463.4,1787.7,416.5,1787.8,398.6,1782.9L398.6,1782.9z M1601.3,1428.6v-350.5h218.3v701h-218.3V1428.6z M2040.4,1428.6v-350.5
	h218.3v701h-218.3L2040.4,1428.6L2040.4,1428.6z M2340.9,1744.4v-34.7H2328c-12,0-12.8-0.4-12.8-6.4v-6.4h66.8v6.4
	c0,6-0.9,6.4-12.8,6.4h-12.8v69.3H2341v-34.6H2340.9z M2387.1,1738v-41.1h22.9l7.8,25.3c4.3,13.9,7.8,26.9,7.8,28.8
	c0,8,5-3,12.6-27.8l8.1-26.3h23v82.2h-15.4l-0.2-28.9c-0.2-31.2-0.1-31.3-11.4,6.6c-6.8,22.6-6.8,22.6-14.8,21.8
	c-7.9-0.8-8.2-1.3-15.8-27.8l-7.8-27l-0.7,27.6l-0.7,27.6h-15.2L2387.1,1738L2387.1,1738z M1679.7,957.1
	c-49.5-10-90.4-52.4-98.8-102.2c-10.2-60.7,30.2-121.7,91.2-137.6c31.1-8.1,71-3.9,99.4,10.5c17,8.6,42.9,33.4,51.6,49.3
	c29.9,54.9,12.2,126.6-39.5,159.7C1754.9,955.3,1711.9,963.7,1679.7,957.1z M2118.8,957.1c-64-13-109.4-76.8-99-139.4
	c7.9-48,44.4-88.1,91.4-100.3c31.1-8.1,71-3.9,99.3,10.5c17.1,8.7,41.2,31.6,50.8,48.5c30.9,54.1,13.3,127.3-38.6,160.6
	C2194,955.3,2151,963.7,2118.8,957.1L2118.8,957.1z"/>
</svg>
