<?xml version="1.0" encoding="utf-8"?>
<!-- Generator: Adobe Illustrator 24.0.1, SVG Export Plug-In . SVG Version: 6.00 Build 0)  -->
<svg version="1.1" id="Calque_1" xmlns="http://www.w3.org/2000/svg" xmlns:xlink="http://www.w3.org/1999/xlink" x="0px" y="0px"
	 viewBox="0 0 1500 1000" style="enable-background:new 0 0 1500 1000;" xml:space="preserve">
<style type="text/css">
	.st0{fill:#999999;}
</style>
<path class="st0" d="M243.8,816.9c-27.8-7.6-54.8-33.4-66.7-63.3c-7.9-20.1-36.6-121-137-482.5L25,216.8l68-0.4
	c37.4-0.2,68.4,0.1,69,0.8s26,99.1,56.5,218.9L274,653.9l26.4-101c62.6-239.7,73.3-278.3,81.2-295c10.6-22.4,29.3-38.4,51.4-44.1
	c11.7-3,38.5-3.1,50-0.1c24.4,6.4,43.4,23.9,53.9,49.7c6.4,15.8,20.2,66.4,71.5,263.3c17.3,66.4,32,121.8,32.6,123.3
	c0.7,1.7,22.1-79.7,56.8-215.7l55.8-218.3h69c54.6,0,68.9,0.4,68.4,1.9c-0.4,1.1-15,53.8-32.6,117.2
	c-84.1,303-113.5,404.7-121.7,422.7c-14,30.5-37.6,51.7-65.5,59c-11.7,3-37.1,3.1-48.6,0.1c-16.1-4.2-25.3-9.8-39.2-23.6
	c-10.8-10.8-14.3-15.5-20.2-27.5c-9.6-19.7-19-51.7-78.2-269.5c-13.9-51.3-25.7-94.2-26.2-95.4c-0.5-1.2-14.9,48.8-32,111.3
	c-37.6,137.3-57.4,208.2-63.6,227.7c-13.3,41.9-37.5,68.7-69.4,77C282.3,819.7,254.4,819.8,243.8,816.9L243.8,816.9z M958.9,606.2
	V397.8h129.8v416.8H958.9V606.2z M1220,606.2V397.8h129.8v416.8H1220L1220,606.2L1220,606.2z M1398.7,794v-20.6h-7.7
	c-7.1,0-7.6-0.2-7.6-3.8v-3.8h39.7v3.8c0,3.6-0.5,3.8-7.6,3.8h-7.6v41.2h-9.2L1398.7,794L1398.7,794L1398.7,794z M1426.1,790.2
	v-24.4h13.6l4.6,15c2.6,8.3,4.6,16,4.6,17.1c0,4.8,3-1.8,7.5-16.5l4.8-15.6h13.7v48.9h-9.2l-0.1-17.2c-0.1-18.6-0.1-18.6-6.8,3.9
	c-4,13.4-4,13.4-8.8,13c-4.7-0.5-4.9-0.8-9.4-16.5l-4.6-16.1l-0.4,16.4l-0.4,16.4h-9L1426.1,790.2L1426.1,790.2z M1005.5,325.8
	c-29.4-5.9-53.8-31.2-58.7-60.8c-6.1-36.1,18-72.4,54.2-81.8c18.5-4.8,42.2-2.3,59.1,6.2c10.1,5.1,25.5,19.9,30.7,29.3
	c17.8,32.6,7.3,75.3-23.5,95C1050.2,324.8,1024.6,329.8,1005.5,325.8z M1266.6,325.8c-38.1-7.7-65-45.7-58.9-82.9
	c4.7-28.5,26.4-52.4,54.3-59.6c18.5-4.8,42.2-2.3,59,6.2c10.2,5.2,24.5,18.8,30.2,28.8c18.4,32.2,7.9,75.7-23,95.5
	C1311.3,324.8,1285.7,329.8,1266.6,325.8L1266.6,325.8z"/>
</svg>
