<?xml version="1.0" encoding="utf-8"?>
<!-- Made by Synel - SVG Version: 6.00 Build 0)  -->
<svg version="1.1" id="Calque_1" xmlns="http://www.w3.org/2000/svg" xmlns:xlink="http://www.w3.org/1999/xlink" x="0px" y="0px"
	 viewBox="0 0 60 60" style="enable-background:new 0 0 60 60;" xml:space="preserve">
<style type="text/css">
	.st0{fill:#57007F;}
	.st1{fill:#FF7970;}
	.st2{fill:#FF3535;}
	.st3{fill:#76ACFF;}
	.st4{fill:#4251FF;}
	.st5{fill:#3082FF;}
</style>
<path class="st0" d="M10,0h40c5.5,0,10,4.5,10,10v40c0,5.5-4.5,10-10,10H10C4.5,60,0,55.5,0,50V10C0,4.5,4.5,0,10,0z"/>
<path class="st1" d="M12,52V24c0-8.8,7.2-16,16-16l0,0c8.8,0,16,7.2,16,16v28H12z"/>
<path class="st2" d="M44,53.5c-0.8,0-1.5-0.7-1.5-1.5V24C42.5,16,36,9.5,28,9.5S13.5,16,13.5,24v28c0,0.8-0.7,1.5-1.5,1.5
	s-1.5-0.7-1.5-1.5V24c0-9.7,7.8-17.5,17.5-17.5S45.5,14.3,45.5,24v28C45.5,52.8,44.8,53.5,44,53.5z"/>
<path class="st3" d="M18,18h6c5.5,0,10,4.5,10,10l0,0c0,5.5-4.5,10-10,10h-6c-5.5,0-10-4.5-10-10l0,0C8,22.5,12.5,18,18,18z"/>
<path class="st4" d="M24,39.5h-6c-6.4,0-11.5-5.1-11.5-11.5S11.6,16.5,18,16.5h6c6.4,0,11.5,5.1,11.5,11.5S30.4,39.5,24,39.5
	L24,39.5z M18,19.5c-4.7,0-8.5,3.8-8.5,8.5s3.8,8.5,8.5,8.5h6c4.7,0,8.5-3.8,8.5-8.5s-3.8-8.5-8.5-8.5H18z"/>
<path class="st5" d="M8,29.5c-0.8,0-1.5-0.7-1.5-1.5c0-6.3,5.2-11.5,11.5-11.5h6c0.8,0,1.5,0.7,1.5,1.5s-0.7,1.5-1.5,1.5h-6
	c-4.7,0-8.5,3.8-8.5,8.5C9.5,28.8,8.8,29.5,8,29.5z"/>
<path class="st1" d="M52,52V32c0-2.2-1.8-4-4-4h-4v24H52z"/>
<path class="st2" d="M52,53.5c-0.8,0-1.5-0.7-1.5-1.5V32c0-1.4-1.1-2.5-2.5-2.5h-2.5V52c0,0.8-0.7,1.5-1.5,1.5s-1.5-0.7-1.5-1.5V28
	c0-0.8,0.7-1.5,1.5-1.5h4c3,0,5.5,2.5,5.5,5.5v20C53.5,52.8,52.8,53.5,52,53.5z"/>
</svg>
