<svg width="207.1px" height="207.1px" viewBox="-5 0 207.1 207.1" xmlns="http://www.w3.org/2000/svg" xmlns:xlink="http://www.w3.org/1999/xlink">
  <defs>
    <clipPath id="clip-path">
      <path id="Path_108" data-name="Path 108" d="M1459.852,228.625V169.95h-197.1v207.1h58.675Z" fill="none"/>
    </clipPath>
  </defs>
  <g id="Group_102" data-name="Group 102" transform="translate(-1262.752 -169.95)">
    <g id="Group_100" data-name="Group 100">
      <g id="Group_99" data-name="Group 99" clip-path="url(#clip-path)">
        <circle id="Ellipse_168" data-name="Ellipse 168" cx="80" cy="80" r="80" transform="translate(1281.302 198.44)" fill="#fe3d50" opacity="0.4"/>
        <circle id="Ellipse_169" data-name="Ellipse 169" cx="80" cy="80" r="80" transform="translate(1281.302 188.44)" fill="#fe3d50"/>
      </g>
    </g>
    <circle id="Ellipse_170" data-name="Ellipse 170" cx="55.885" cy="55.885" r="55.885" transform="translate(1305.417 222.556)" fill="#f8e71c"/>
    <circle id="Ellipse_171" data-name="Ellipse 171" cx="55.885" cy="55.885" r="55.885" transform="translate(1305.417 212.556)" fill="#f8e71c"/>
    <g id="Group_101" data-name="Group 101">
      <path id="Path_109" data-name="Path 109" d="M1407.314,324.1H1315.29a8,8,0,0,1-8-8V256.813a8,8,0,0,1,3.239-6.429l46.012-34.076a8,8,0,0,1,9.522,0l46.012,34.076a8,8,0,0,1,3.239,6.429V316.1A8,8,0,0,1,1407.314,324.1Z" fill="#1f211e" opacity="0.4"/>
      <path id="Path_110" data-name="Path 110" d="M1407.314,314.1H1315.29a8,8,0,0,1-8-8V246.813a8,8,0,0,1,3.239-6.429l46.012-34.076a8,8,0,0,1,9.522,0l46.012,34.076a8,8,0,0,1,3.239,6.429V306.1A8,8,0,0,1,1407.314,314.1Z" fill="#e2e6e8"/>
      <path id="Path_111" data-name="Path 111" d="M1361.3,280.813l39.653-24.961v-29h-79.306v29Z" fill="#2283f6"/>
      <rect id="Rectangle_120" data-name="Rectangle 120" width="20.995" height="20.995" transform="translate(1326.535 236.854)" fill="#2283f6"/>
      <rect id="Rectangle_121" data-name="Rectangle 121" width="20.995" height="3.469" transform="translate(1350.69 236.854)" fill="#2283f6"/>
      <rect id="Rectangle_122" data-name="Rectangle 122" width="45.378" height="12.983" transform="translate(1350.69 244.61)" fill="#2283f6"/>
      <rect id="Rectangle_123" data-name="Rectangle 123" width="20.391" height="3.469" transform="translate(1326.535 261.604)" fill="#2283f6"/>
      <rect id="Rectangle_124" data-name="Rectangle 124" width="45.646" height="3.469" transform="translate(1350.69 261.604)" fill="#2283f6"/>
      <rect id="Rectangle_125" data-name="Rectangle 125" width="45.646" height="3.469" transform="translate(1350.69 268.44)" fill="#2283f6"/>
      <path id="Path_112" data-name="Path 112" d="M1321.649,252.852v4l39.653,24.961,39.653-24.961v-4L1361.3,277.813Z" fill="#51e4c2"/>
      <path id="Path_113" data-name="Path 113" d="M1415.314,246.813V306.1a8,8,0,0,1-8,8H1315.29a8,8,0,0,1-8-8V246.813l54.012,34Z" fill="#fff"/>
      <line id="Line_11" data-name="Line 11" x2="52.346" y2="30.16" transform="translate(1361.302 280.813)" fill="none" stroke="#f5f7f6" stroke-miterlimit="10" stroke-width="1"/>
      <line id="Line_12" data-name="Line 12" x1="52.346" y2="30.16" transform="translate(1308.956 280.813)" fill="none" stroke="#f5f7f6" stroke-miterlimit="10" stroke-width="1"/>
      <path id="Path_114" data-name="Path 114" d="M1370.146,282.813c0,1.131-1.187,2.018-1.595,3-.423,1.02-.227,2.483-1,3.251s-2.231.573-3.251,1c-.984.408-1.871,1.6-3,1.6s-2.019-1.188-3-1.6c-1.02-.423-2.483-.227-3.252-1s-.572-2.231-.995-3.251c-.408-.984-1.595-1.871-1.595-3s1.187-2.019,1.595-3c.423-1.019.227-2.482.995-3.251s2.232-.572,3.252-.995c.983-.408,1.871-1.6,3-1.6s2.019,1.187,3,1.6c1.02.423,2.483.227,3.251.995s.573,2.232,1,3.251C1368.959,280.794,1370.146,281.681,1370.146,282.813Z" fill="#e2e6e8"/>
      <path id="Path_115" data-name="Path 115" d="M1370.146,281.813c0,1.131-1.187,2.018-1.595,3-.423,1.02-.227,2.483-1,3.251s-2.231.573-3.251,1c-.984.408-1.871,1.6-3,1.6s-2.019-1.188-3-1.6c-1.02-.423-2.483-.227-3.252-1s-.572-2.231-.995-3.251c-.408-.984-1.595-1.871-1.595-3s1.187-2.019,1.595-3c.423-1.019.227-2.482.995-3.251s2.232-.572,3.252-.995c.983-.408,1.871-1.6,3-1.6s2.019,1.187,3,1.6c1.02.423,2.483.227,3.251.995s.573,2.232,1,3.251C1368.959,279.794,1370.146,280.681,1370.146,281.813Z" fill="#51e4c2"/>
      <circle id="Ellipse_172" data-name="Ellipse 172" cx="5.934" cy="5.934" r="5.934" transform="translate(1355.368 275.878)" fill="#51e4c2"/>
    </g>
  </g>
</svg>
