<svg width="207.1px" height="207.1px" viewBox="-1.77 0 207.1 207.1" xmlns="http://www.w3.org/2000/svg" xmlns:xlink="http://www.w3.org/1999/xlink">
  <defs>
    <clipPath id="clip-path">
      <path id="Path_84" data-name="Path 84" d="M1008.309,874.771V816.1h-197.1v207.1h58.675Z" fill="none"/>
    </clipPath>
  </defs>
  <g id="Group_81" data-name="Group 81" transform="translate(-811.208 -816.095)">
    <circle id="Ellipse_138" data-name="Ellipse 138" cx="55.885" cy="55.885" r="55.885" transform="translate(853.995 868.872)" fill="#f8e71c" opacity="0.4"/>
    <g id="Group_74" data-name="Group 74">
      <g id="Group_73" data-name="Group 73" clip-path="url(#clip-path)">
        <circle id="Ellipse_139" data-name="Ellipse 139" cx="80" cy="80" r="80" transform="translate(829.879 844.756)" fill="#2283f6" opacity="0.4"/>
        <circle id="Ellipse_140" data-name="Ellipse 140" cx="80" cy="80" r="80" transform="translate(829.879 834.756)" fill="#2283f6"/>
      </g>
    </g>
    <circle id="Ellipse_141" data-name="Ellipse 141" cx="55.885" cy="55.885" r="55.885" transform="translate(853.995 863.872)" fill="#51e4c2" opacity="0.5"/>
    <circle id="Ellipse_142" data-name="Ellipse 142" cx="55.885" cy="55.885" r="55.885" transform="translate(853.995 858.872)" fill="#51e4c2"/>
    <g id="Group_80" data-name="Group 80">
      <rect id="Rectangle_75" data-name="Rectangle 75" width="115.033" height="89.201" rx="2" transform="translate(852.363 880.155)" fill="#1f211e" opacity="0.6"/>
      <rect id="Rectangle_76" data-name="Rectangle 76" width="115.033" height="89.201" rx="2" transform="translate(852.363 870.155)" fill="#fff"/>
      <path id="Path_85" data-name="Path 85" d="M909.879,870.155H854.363a2,2,0,0,0-2,2v85.2a2,2,0,0,0,2,2h55.516Z" fill="#51e4c2" opacity="0.1"/>
      <path id="Path_86" data-name="Path 86" d="M965.4,955.357H854.363a2,2,0,0,1-2-2v3a2,2,0,0,0,2,2H965.4a2,2,0,0,0,2-2v-3A2,2,0,0,1,965.4,955.357Z" fill="#51e4c2" opacity="0.1"/>
      <rect id="Rectangle_77" data-name="Rectangle 77" width="3.505" height="89.201" transform="translate(908.127 870.155)" fill="#51e4c2" opacity="0.1"/>
      <g id="Group_75" data-name="Group 75">
        <rect id="Rectangle_78" data-name="Rectangle 78" width="9.674" height="3.099" rx="1.55" transform="translate(905.042 882.209)" fill="#fe3d50" opacity="0.2"/>
        <rect id="Rectangle_79" data-name="Rectangle 79" width="9.674" height="3.099" rx="1.55" transform="translate(905.042 880.659)" fill="#fe3d50"/>
      </g>
      <g id="Group_76" data-name="Group 76">
        <rect id="Rectangle_80" data-name="Rectangle 80" width="9.674" height="3.099" rx="1.55" transform="translate(905.042 903.253)" fill="#fe3d50" opacity="0.2"/>
        <rect id="Rectangle_81" data-name="Rectangle 81" width="9.674" height="3.099" rx="1.55" transform="translate(905.042 901.703)" fill="#fe3d50"/>
      </g>
      <g id="Group_77" data-name="Group 77">
        <rect id="Rectangle_82" data-name="Rectangle 82" width="9.674" height="3.099" rx="1.55" transform="translate(905.042 924.297)" fill="#fe3d50" opacity="0.2"/>
        <rect id="Rectangle_83" data-name="Rectangle 83" width="9.674" height="3.099" rx="1.55" transform="translate(905.042 922.747)" fill="#fe3d50"/>
      </g>
      <g id="Group_78" data-name="Group 78">
        <rect id="Rectangle_84" data-name="Rectangle 84" width="9.674" height="3.099" rx="1.55" transform="translate(905.042 945.341)" fill="#fe3d50" opacity="0.2"/>
        <rect id="Rectangle_85" data-name="Rectangle 85" width="9.674" height="3.099" rx="1.55" transform="translate(905.042 943.791)" fill="#fe3d50"/>
      </g>
      <rect id="Rectangle_86" data-name="Rectangle 86" width="39.117" height="1.532" transform="translate(861.563 881.227)" fill="#51e4c2" opacity="0.1"/>
      <rect id="Rectangle_87" data-name="Rectangle 87" width="39.117" height="1.532" transform="translate(861.563 902.487)" fill="#51e4c2" opacity="0.1"/>
      <rect id="Rectangle_88" data-name="Rectangle 88" width="39.117" height="1.532" transform="translate(861.563 923.747)" fill="#51e4c2" opacity="0.1"/>
      <rect id="Rectangle_89" data-name="Rectangle 89" width="39.117" height="1.532" transform="translate(861.563 945.007)" fill="#51e4c2" opacity="0.1"/>
      <rect id="Rectangle_90" data-name="Rectangle 90" width="39.117" height="1.532" transform="translate(958.196 882.759) rotate(-180)" fill="#51e4c2" opacity="0.1"/>
      <rect id="Rectangle_91" data-name="Rectangle 91" width="39.117" height="1.532" transform="translate(958.196 904.019) rotate(-180)" fill="#51e4c2" opacity="0.1"/>
      <rect id="Rectangle_92" data-name="Rectangle 92" width="39.117" height="1.532" transform="translate(958.196 925.279) rotate(-180)" fill="#51e4c2" opacity="0.1"/>
      <rect id="Rectangle_93" data-name="Rectangle 93" width="39.117" height="1.532" transform="translate(958.196 946.539) rotate(-180)" fill="#51e4c2" opacity="0.1"/>
      <rect id="Rectangle_94" data-name="Rectangle 94" width="34.117" height="2.34" transform="translate(919.079 895.831)" fill="#51e4c2"/>
      <rect id="Rectangle_95" data-name="Rectangle 95" width="39.117" height="2.34" transform="translate(919.079 887.896)" fill="#51e4c2"/>
      <rect id="Rectangle_96" data-name="Rectangle 96" width="34.117" height="2.34" transform="translate(919.079 916.443)" fill="#df71f5"/>
      <rect id="Rectangle_97" data-name="Rectangle 97" width="39.117" height="2.34" transform="translate(919.079 908.508)" fill="#df71f5"/>
      <path id="Path_87" data-name="Path 87" d="M993.288,899.144l-1.474-2.275a3,3,0,0,0-4.149-.886l-2.882,1.868-.286-.442-3.007,1.949.286.442-1.678,1.088-.774.5-48.657,31.538-4.229,6.855a1,1,0,0,0,.983,1.516l7.984-1.061L984.062,908.7l.774-.5,1.678-1.087.286.441,3.007-1.949-.286-.441,2.882-1.868A3,3,0,0,0,993.288,899.144Z" fill="#1f211e" opacity="0.4"/>
      <g id="Group_79" data-name="Group 79">
        <rect id="Rectangle_98" data-name="Rectangle 98" width="8.711" height="3.844" transform="translate(972.567 888.715) rotate(45)" fill="#fff"/>
        <rect id="Rectangle_99" data-name="Rectangle 99" width="8.711" height="58.907" transform="translate(970.501 890.781) rotate(45)" fill="#f8e71c"/>
        <rect id="Rectangle_100" data-name="Rectangle 100" width="3.816" height="58.907" transform="translate(973.232 893.512) rotate(45)" fill="#fe3d50" opacity="0.8"/>
        <path id="Path_88" data-name="Path 88" d="M926.144,940.02l2.7-7.586,6.159,6.16-7.586,2.7A1,1,0,0,1,926.144,940.02Z" fill="#534741"/>
        <path id="Rectangle_101" data-name="Rectangle 101" d="M3,0H5.711a3,3,0,0,1,3,3v7.017a0,0,0,0,1,0,0H0a0,0,0,0,1,0,0V3A3,3,0,0,1,3,0Z" transform="translate(978.998 882.284) rotate(45)" fill="#f8e71c"/>
        <rect id="Rectangle_102" data-name="Rectangle 102" width="2.838" height="22.065" transform="translate(971.87 893.565) rotate(45)" fill="#534741"/>
        <rect id="Rectangle_103" data-name="Rectangle 103" width="9.763" height="3.583" transform="translate(974.077 886.461) rotate(45)" fill="#534741"/>
      </g>
      <circle id="Ellipse_143" data-name="Ellipse 143" cx="4.014" cy="4.014" r="4.014" transform="translate(861.772 888.14)" fill="#fe3d50"/>
      <circle id="Ellipse_144" data-name="Ellipse 144" cx="4.014" cy="4.014" r="4.014" transform="translate(867.107 888.14)" fill="#f8e71c"/>
      <circle id="Ellipse_145" data-name="Ellipse 145" cx="4.014" cy="4.014" r="4.014" transform="translate(872.442 888.14)" fill="#2283f6"/>
    </g>
  </g>
</svg>
