<svg width="207.1px" height="207.1px" viewBox="-5 0 207.1 207.1" xmlns="http://www.w3.org/2000/svg" xmlns:xlink="http://www.w3.org/1999/xlink">
  <defs>
    <clipPath id="clip-path">
      <path id="Path_105" data-name="Path 105" d="M1459.033,874.881V816.206h-197.1v207.1h58.675Z" fill="none"/>
    </clipPath>
  </defs>
  <g id="Group_98" data-name="Group 98" transform="translate(-1261.932 -816.206)">
    <g id="Group_96" data-name="Group 96">
      <g id="Group_95" data-name="Group 95" clip-path="url(#clip-path)">
        <circle id="Ellipse_160" data-name="Ellipse 160" cx="80" cy="80" r="80" transform="translate(1281.302 844.756)" fill="#2283f6" opacity="0.4"/>
        <circle id="Ellipse_161" data-name="Ellipse 161" cx="80" cy="80" r="80" transform="translate(1281.302 834.756)" fill="#2283f6"/>
      </g>
    </g>
    <circle id="Ellipse_162" data-name="Ellipse 162" cx="55.885" cy="55.885" r="55.885" transform="translate(1305.417 863.872)" fill="#fe3d50" opacity="0.5"/>
    <circle id="Ellipse_163" data-name="Ellipse 163" cx="55.885" cy="55.885" r="55.885" transform="translate(1305.417 858.872)" fill="#fe3d50"/>
    <g id="Group_97" data-name="Group 97">
      <rect id="Rectangle_116" data-name="Rectangle 116" width="60.894" height="119.769" rx="7" transform="translate(1330.855 864.872)" fill="#1f211e" opacity="0.4"/>
      <rect id="Rectangle_117" data-name="Rectangle 117" width="60.894" height="119.769" rx="7" transform="translate(1330.855 854.872)" fill="#fff"/>
      <path id="Path_106" data-name="Path 106" d="M1384.541,973.072h-46.478c-3.831,0-6.938-4.134-6.938-8v2a6.97,6.97,0,0,0,6.938,7h46.478a6.969,6.969,0,0,0,6.937-7v-2C1391.478,968.938,1388.372,973.072,1384.541,973.072Z" fill="#2283f6" opacity="0.1"/>
      <rect id="Rectangle_118" data-name="Rectangle 118" width="54.712" height="92.633" transform="translate(1333.946 868.439)" fill="#534741"/>
      <path id="Path_107" data-name="Path 107" d="M1384.749,854.872h-46.894a7,7,0,0,0-7,7v83.422l60.894-60.894V861.872A7,7,0,0,0,1384.749,854.872Z" fill="#2283f6" opacity="0.1" style="mix-blend-mode: screen;isolation: isolate"/>
      <circle id="Ellipse_164" data-name="Ellipse 164" cx="3.959" cy="3.959" r="3.959" transform="translate(1357.343 963.684)" fill="#fe3d50" opacity="0.5"/>
      <circle id="Ellipse_165" data-name="Ellipse 165" cx="3.145" cy="3.145" r="3.145" transform="translate(1358.157 964.498)" fill="#fff"/>
      <rect id="Rectangle_119" data-name="Rectangle 119" width="10.658" height="1.65" rx="0.82" transform="translate(1355.973 861.128)" fill="#fe3d50" opacity="0.5"/>
      <circle id="Ellipse_166" data-name="Ellipse 166" cx="1.051" cy="1.051" r="1.051" transform="translate(1351.723 860.902)" fill="#fe3d50" opacity="0.5"/>
      <circle id="Ellipse_167" data-name="Ellipse 167" cx="0.719" cy="0.719" r="0.719" transform="translate(1360.583 857.433)" fill="#fe3d50" opacity="0.1"/>
    </g>
  </g>
</svg>
