<svg width="207.1px" height="207.1px" viewBox="-5 0 207.1 207.1" xmlns="http://www.w3.org/2000/svg" xmlns:xlink="http://www.w3.org/1999/xlink">
  <defs>
    <clipPath id="clip-path">
      <path id="Path_44" data-name="Path 44" d="M1008.309,551.7V493.023h-197.1v207.1h58.675Z" fill="none"/>
    </clipPath>
  </defs>
  <g id="Group_46" data-name="Group 46" transform="translate(-811.208 -493.023)">
    <g id="Group_44" data-name="Group 44">
      <g id="Group_43" data-name="Group 43" clip-path="url(#clip-path)">
        <circle id="Ellipse_77" data-name="Ellipse 77" cx="80" cy="80" r="80" transform="translate(830.4 521.595)" fill="#f8e71c" opacity="0.4"/>
        <circle id="Ellipse_78" data-name="Ellipse 78" cx="80" cy="80" r="80" transform="translate(830.4 511.595)" fill="#f8e71c"/>
      </g>
    </g>
    <circle id="Ellipse_79" data-name="Ellipse 79" cx="55.885" cy="55.885" r="55.885" transform="translate(854.516 540.71)" fill="#2283f6" opacity="0.5"/>
    <circle id="Ellipse_80" data-name="Ellipse 80" cx="55.885" cy="55.885" r="55.885" transform="translate(854.516 535.71)" fill="#2283f6"/>
    <g id="Group_45" data-name="Group 45">
      <circle id="Ellipse_81" data-name="Ellipse 81" cx="2.863" cy="2.863" r="2.863" transform="translate(943.897 601.748)" fill="#fff"/>
      <path id="Path_45" data-name="Path 45" d="M958.855,555.3c-5.422-5.422-19.773-.77-35.548,8.541a192.692,192.692,0,0,0-36.559,28.322c-9.441,9.441-14.729,17.2-17.085,23.744a17.452,17.452,0,0,0-2.888-1.189c-4.009-1.173-12.844,14.56-10.32,16.967,1.562,1.49,7.172-1.969,11.889-5.178a18.374,18.374,0,0,0,1.837,5.728,7.673,7.673,0,0,0-4.525,1.395c-1.516,1.517.419,4.852,3.755,8.46-.83,1.711-1.225,3.048-.809,3.463s1.751.021,3.462-.809c3.608,3.335,6.944,5.271,8.46,3.755a7.675,7.675,0,0,0,1.4-4.525,18.369,18.369,0,0,0,5.727,1.836c-3.209,4.717-6.667,10.327-5.178,11.889,2.408,2.524,18.14-6.31,16.967-10.32a17.352,17.352,0,0,0-1.189-2.887c6.542-2.357,14.3-7.644,23.744-17.085a192.719,192.719,0,0,0,28.323-36.559C959.625,575.076,964.277,560.726,958.855,555.3Z" fill="#1f211e" opacity="0.5"/>
      <path id="Path_46" data-name="Path 46" d="M873.237,643.02c-3.341,3.341-21.291,9.193-21.291,9.193s5.851-17.95,9.192-21.291a8.555,8.555,0,0,1,12.1,12.1Z" fill="#fe3d50" opacity="0.4"/>
      <path id="Path_47" data-name="Path 47" d="M872.839,636.951c-1.555,1.555-12.375,6.743-12.375,6.743s5.189-10.82,6.744-12.375a3.982,3.982,0,1,1,5.631,5.632Z" fill="#f8e71c"/>
      <path id="Path_48" data-name="Path 48" d="M880.524,638.5c-1.705,1.7-5.708-.95-9.813-5.055s-6.76-8.109-5.055-9.814,9.243-2.586,13.349,1.52S882.229,636.8,880.524,638.5Z" fill="#534741"/>
      <path id="Path_49" data-name="Path 49" d="M856.455,621.689c-2.524-2.407,6.311-18.14,10.32-16.967s10.928,5.856,8.115,7.358S858.98,624.1,856.455,621.689Z" fill="#fe3d50"/>
      <path id="Path_50" data-name="Path 50" d="M882.469,647.7c2.408,2.524,18.14-6.31,16.967-10.32s-5.856-10.928-7.358-8.115S880.062,645.179,882.469,647.7Z" fill="#fe3d50"/>
      <path id="Path_51" data-name="Path 51" d="M923.307,553.845a192.686,192.686,0,0,0-36.56,28.322c-23.878,23.879-21.268,37.048-11.536,46.78s22.9,12.343,46.78-11.536a192.719,192.719,0,0,0,28.323-36.559Z" fill="#fff"/>
      <path id="Path_52" data-name="Path 52" d="M935.212,568.947a80.255,80.255,0,0,0,15.1,11.9c9.311-15.776,13.963-30.126,8.541-35.548s-19.772-.77-35.548,8.541A80.288,80.288,0,0,0,935.212,568.947Z" fill="#fe3d50"/>
      <path id="Path_53" data-name="Path 53" d="M924.75,607.095c-23.156,23.237-38.83,17.752-48.242,8.256a24.006,24.006,0,0,1-5.758-8.615c-2.831,9.15-.7,15.791,4.758,21.3,9.412,9.5,23.148,12.043,46.242-11.256a187.842,187.842,0,0,0,27.392-35.671c8.291-14.173,13.755-28.16,10.319-34.26C961.162,558.591,946.907,584.86,924.75,607.095Z" fill="#2283f6" opacity="0.2"/>
      <circle id="Ellipse_82" data-name="Ellipse 82" cx="12.992" cy="12.992" r="12.992" transform="translate(896.767 581.408)" fill="#2283f6" opacity="0.2"/>
      <circle id="Ellipse_83" data-name="Ellipse 83" cx="9.889" cy="9.889" r="9.889" transform="translate(899.87 584.511)" fill="#534741"/>
      <path id="Path_54" data-name="Path 54" d="M916.751,597.392a9.883,9.883,0,0,1-16.673-4.992,9.886,9.886,0,1,0,19.361,0A9.836,9.836,0,0,1,916.751,597.392Z" fill="#534741" opacity="0.2" style="mix-blend-mode: multiply;isolation: isolate"/>
      <ellipse id="Ellipse_84" data-name="Ellipse 84" cx="4.245" cy="2.342" rx="4.245" ry="2.342" transform="translate(905.513 585.907)" fill="#fff" opacity="0.3"/>
      <circle id="Ellipse_85" data-name="Ellipse 85" cx="1.371" cy="1.371" r="1.371" transform="translate(919.568 581.848)" fill="#2283f6" opacity="0.2"/>
      <circle id="Ellipse_86" data-name="Ellipse 86" cx="1.371" cy="1.371" r="1.371" transform="translate(904.295 577.756)" fill="#2283f6" opacity="0.2"/>
      <circle id="Ellipse_87" data-name="Ellipse 87" cx="1.371" cy="1.371" r="1.371" transform="translate(893.114 588.936)" fill="#2283f6" opacity="0.2"/>
      <circle id="Ellipse_88" data-name="Ellipse 88" cx="1.371" cy="1.371" r="1.371" transform="translate(897.207 604.209)" fill="#2283f6" opacity="0.2"/>
      <circle id="Ellipse_89" data-name="Ellipse 89" cx="1.371" cy="1.371" r="1.371" transform="translate(912.48 608.302)" fill="#2283f6" opacity="0.2"/>
      <circle id="Ellipse_90" data-name="Ellipse 90" cx="1.371" cy="1.371" r="1.371" transform="translate(923.66 597.121)" fill="#2283f6" opacity="0.2"/>
      <path id="Path_55" data-name="Path 55" d="M882.342,627.593c-3.65,3.65-12.536,9.168-13.741,7.964s4.314-10.09,7.965-13.741,6.879-3.512,8.083-2.307S885.993,623.942,882.342,627.593Z" fill="#fe3d50"/>
      <path id="Path_56" data-name="Path 56" d="M953.035,545.31c1.107,1.77-8.643,5.737-15.609,10.094s-12.369,7.992-13.85,6.52c-3.678-3.659-.126-4.573,6.841-8.93S951.928,543.54,953.035,545.31Z" fill="#fff" opacity="0.3"/>
      <circle id="Ellipse_91" data-name="Ellipse 91" cx="3.68" cy="3.68" r="3.68" transform="translate(884.126 536.316)" fill="#fff"/>
      <circle id="Ellipse_92" data-name="Ellipse 92" cx="2.055" cy="2.055" r="2.055" transform="translate(908.345 544.106)" fill="#fff"/>
      <circle id="Ellipse_93" data-name="Ellipse 93" cx="2.055" cy="2.055" r="2.055" transform="translate(863.722 570.909)" fill="#fff"/>
    </g>
  </g>
</svg>
