<?xml version="1.0" encoding="utf-8"?>
<!-- Generator: Adobe Illustrator 24.0.1, SVG Export Plug-In . SVG Version: 6.00 Build 0)  -->
<svg version="1.1" id="Nintendo_Switch" xmlns="http://www.w3.org/2000/svg" xmlns:xlink="http://www.w3.org/1999/xlink" x="0px"
	 y="0px" viewBox="0 0 2500 2500" style="enable-background:new 0 0 2500 2500;" xml:space="preserve">
<style type="text/css">
	.st0{fill:#E1131F;}
	.st1{fill:#FFFFFF;}
</style>
<path class="st0" d="M2251.7,2500H248.3C111.2,2500,0,2385.6,0,2244.3V255.8C0,114.5,111.2,0,248.3,0h2003.4
	C2388.8,0,2500,114.5,2500,255.8v1988.5C2500,2385.6,2388.8,2500,2251.7,2500z"/>
<path class="st0" d="M1313,825.2v701.9c0,22.3,1.3,23.6,23.2,23.6c68.2,0,136.4,0.4,204.7-0.4c24.5-0.4,49.4-1.3,73.5-6.6
	c180.2-36.3,300.9-184.6,301.3-368.2c0.4-232.2,0-464.4,0-696.7c0-17.5-0.9-35.4-3.1-52.9c-22.7-181.9-179.3-321-362.5-321.9
	c-69.5-0.4-138.6,0-208.2,0c-28.9,0-28.9,0-28.9,28V825.2L1313,825.2z M1170.8,828.7V130.2c0-26.2-0.4-26.2-25.4-26.2
	c-100.1,0-200.7-1.3-300.9,0.4c-141.3,1.7-248,65.2-320.6,185.9c-36.7,61.2-49.9,128.6-49.9,199c0.4,221.3,0,442.6,0,663.9
	c0,17.1,0.4,34.5,1.7,51.6c11.8,190.7,168.8,341.6,359.9,345.1c101.9,1.7,204.2,0.4,306.1,0.4c28.4,0,28.4,0,28.4-28.9
	C1170.8,1290.5,1170.8,1059.6,1170.8,828.7L1170.8,828.7z M711.6,2163.8c2.6,7.9,4.4,11.4,5.2,15.3c17.5,62.1,35.4,124.2,51.6,186.7
	c3.9,14.9,10.5,20.6,25.8,19.2c15.3-1.3,31.1-1.3,46.4,0c13.1,0.9,17.9-4.4,21-16.2c28.9-103.6,58.2-207.3,87.5-310.5
	c1.3-4.8,1.7-9.6,3.5-16.2c-20.6,0-38.9,0.9-57.3-0.4c-12.7-0.4-17.9,3.5-21,16.2c-17.5,68.2-35.9,136-53.8,204.2
	c-1.7,6.1-3.5,12.7-6.6,23.6c-3.5-10.5-5.2-15.7-6.6-21.4c-17.5-60.4-35-120.7-52.9-181.1c-12.2-41.5-12.2-40.7-55.5-41.5
	c-14.4-0.4-19.7,5.2-23.2,18.4c-19.2,68.2-39.4,136.4-59,204.7c-1.7,5.7-3.9,11.4-7,20.1c-20.6-78.3-40.2-152.6-60.4-227.4
	c-1.3-5.2-5.7-14-9.2-14c-22.3-1.3-45-0.4-68.7-0.4c1.7,7.4,2.6,12.2,3.5,16.6c25.4,90.5,50.7,180.6,76.5,270.7
	c4.8,17.5,5.2,42,17.1,50.7c12.7,9.2,35.9,4.4,54.7,4.4c31.5,0,24.9,3.1,32.8-24.9C674.5,2296.3,692.4,2232.5,711.6,2163.8
	L711.6,2163.8z M1944.9,2043.6v324.5c0,6.6-3.5,16.2,8.7,16.6c20.1,0.4,39.8,0,62.1,0v-135.2h157.9v135.1c20.6,0,39.4-0.4,57.7,0
	c10.5,0.4,14-3.9,14-14c-0.4-20.1,0-40.2,0-60.4c0-83.5,0-167.5-0.4-251c0-5.7-3.9-16.2-6.6-16.2c-21.4-1.3-42.9-0.9-66-0.9V2175
	h-156.1v-132.1C1992.1,2043.6,1969.8,2043.6,1944.9,2043.6L1944.9,2043.6z M117.3,2359.3c25.4,8.7,48.1,18.4,71.7,24.1
	c61.2,14.9,122.9,16.2,182.4-7.4c40.7-16.2,61.2-47.2,62.1-91.8c0.4-43.7-24.1-68.2-61.2-81.8c-27.1-10.1-56-16.6-84-24.1
	c-25.4-7-51.2-11.8-76.1-20.1c-7-2.6-15.7-14.4-15.7-21.4c0.4-8.3,8.7-17.1,15.3-24.1c3.5-3.9,10.1-5.7,15.7-6.1
	c22.7-2.2,45.9-6.6,68.2-3.9c28.4,3.1,56.9,11.8,87,18.4c7-17.5,14.9-36.7,23.2-56.9c-40.7-16.2-80.5-24.9-122-26.7
	c-42.4-1.7-83.5,6.1-119.4,30.2c-29.3,19.7-45.5,46.4-42,82.7c3.5,34.5,24.5,55.5,54.7,66c28.9,10.1,59.5,16.6,89.2,24.1
	c24.5,6.1,49.4,10.1,73,18.4c9.2,3.5,21,16.2,21.4,24.9c0.4,10.1-9.6,21.4-17.1,30.6c-3.9,4.8-11.8,7.4-18.4,7.9
	c-27.1,2.2-55.1,7.4-81.8,3.9c-31.5-3.9-62.5-15.7-95.3-24.5C139.6,2318.6,129.6,2337,117.3,2359.3L117.3,2359.3z M1813.7,2267.5
	c-55.5,59.9-117.6,68.7-166.6,24.5c-43.3-39.4-46.8-105-7.4-147.8c20.1-22.3,45.9-34.1,76.1-35c41.5-1.3,73,18.4,97.5,52.5
	c19.2-16.6,37.2-32.8,54.7-48.1c-41.5-66.5-126.8-97.1-202.9-73.9c-80.9,24.5-132.1,98.4-129,185.9c2.6,78.3,62.1,148.7,139.9,167.1
	c73.9,17.1,159.2-17.1,191.1-77.8C1850,2299,1832.1,2283.7,1813.7,2267.5L1813.7,2267.5z M1303.4,2116.2v23.2
	c0,75.7,0.4,151.3-0.4,227c0,13.6,3.1,20.1,17.9,18.8c13.1-1.3,26.2-1.3,39.4,0c14.9,1.3,18.4-4.8,17.9-18.8
	c-0.4-76.1-0.4-152.2-0.4-228.7v-21.4c31.1,0,59.9-0.4,88.3,0.4c13.1,0.4,19.2-3.1,17.9-17.1c-1.3-13.1-1.3-26.2,0-39.4
	c1.3-14.9-4.8-18.4-18.8-17.9c-84.4,0.4-168.4,0.4-252.8,0.4c-5.7,0-10.9,0.4-16.6,0.9v73
	C1232.1,2116.2,1266.2,2116.2,1303.4,2116.2L1303.4,2116.2z M1038.3,2043.6v340.2h74.8v-340.2L1038.3,2043.6L1038.3,2043.6z
	 M2065.6,1861.2c0,53.4,42.4,96.2,95.3,96.6c53.4,0.4,97.1-43.7,96.6-97.5c-0.4-53.4-43.3-96.6-95.8-97.1
	C2108.9,1763.2,2065.6,1807,2065.6,1861.2z M608.4,1771.1v179.7h36.7v-116.3c6.1,7.9,9.2,11.4,11.8,14.9
	c22.3,30.2,45.9,60.4,66.9,91.4c10.9,15.7,25.4,10.9,38.5,9.6c3.1-0.4,6.6-14.4,7-22.3c0.4-46.4,0.4-92.7,0.4-139.1
	c0-6.1-0.4-12.2-0.9-18.4h-37.2v116.3c-25.4-34.1-49.9-63.4-70-94.9C647.8,1771.1,632.1,1765.4,608.4,1771.1L608.4,1771.1z
	 M294.9,1950v-179.3H259v111.1c-26.7-29.7-51.6-59.9-72.6-92.3c-13.6-21-30.2-22.3-51.6-18.4v179.7H172v-117.6
	c25.8,35,49.9,65.2,70.8,97.1C255.9,1949.5,270.8,1957,294.9,1950z M1593.3,1770.2v116.3c-26.2-35.4-49.4-66.5-73-97.5
	c-16.6-22.3-22.3-24.1-52-16.6c0,56.9,0,113.7,0.4,171c0,2.6,5.2,7.4,8.3,7.9c9.2,0.9,18.8,0.4,29.7,0.4v-117.2
	c5.7,6.6,8.7,10.1,11.8,14c21,28,41.5,56,62.5,84c16.2,21.9,21.9,23.6,49,16.2v-178.9C1618.2,1770.2,1607.7,1770.2,1593.3,1770.2
	L1593.3,1770.2z M1781.8,1860.8c0,25.8,0.4,51.6,0,77.4c0,10.5,3.5,14.4,14,14c21-0.4,42.4,0.4,63.9-0.4c49-1.7,87.9-38.5,91-84.4
	c3.1-47.7-28.4-88.3-77.4-95.8c-26.2-3.9-53.8-2.2-80.5-1.7c-3.5,0-9.6,8.7-9.6,13.1C1781.4,1809.2,1781.8,1835,1781.8,1860.8
	L1781.8,1860.8z M1320,1769.4c-42,0-83.1,0.4-124.2-0.4c-13.1-0.4-16.6,3.9-16.6,16.6c0.9,42.4,0.4,84.8,0.4,127.3
	c0,38.9,0,38.9,38.5,38.9h101.5v-35.9H1219v-41.1h93.2v-34.1h-93.6v-37.2H1320V1769.4z M897.1,1809.6h24.5
	c36.3,0.4,31.1-4.4,31.5,32.4c0.4,30.2,0,60.8,0,91c0,6.1,0.9,11.8,1.3,17.9h39.4v-141.7h54.2v-38.5H896.6
	C897.1,1783.8,897.1,1795.6,897.1,1809.6L897.1,1809.6z M432.6,1769.4v181.5h38v-180.6c-5.7-0.4-10.1-0.9-14.9-0.9H432.6
	L432.6,1769.4z M2331.1,2333.9c-5.2,27.1-3.1,44.2,7.4,51.2c0.4-9.6,0.9-18.4,1.3-26.7c6.1,8.7,11.8,17.5,17.9,26.2
	c3.9-7.9,8.3-15.7,12.2-23.2c0.4-0.4,1.7-0.4,1.7-0.4c1.7,8.3,3.1,16.2,4.8,24.1c2.2-0.4,3.9-0.9,6.1-1.3v-49.4
	c-24.1-4.8-15.3,21.4-26.2,28.4C2345.9,2354.9,2354.3,2330,2331.1,2333.9L2331.1,2333.9z M2291.7,2347.1c0.4,12.2,1.3,24.5,1.7,37.2
	c2.6,0,5.2,0.4,7.4,0.4c0.9-9.2,0.4-18.4,3.1-26.7c2.6-7.9,8.7-14.9,13.1-22.3h-40.7c-0.4,1.3-0.4,3.1-0.9,4.4
	C2281.2,2342.3,2286.5,2344.4,2291.7,2347.1z"/>
<path class="st1" d="M1313,825.2V132c0-28,0-28,28.9-28c69.5,0,138.6-0.4,208.2,0c183.2,0.9,339.8,139.9,362.5,321.9
	c2.2,17.5,3.1,35.4,3.1,52.9c0,232.2,0.4,464.4,0,696.7c0,183.7-121.1,331.9-301.3,368.2c-24.1,4.8-49,6.1-73.5,6.6
	c-68.2,0.9-136.4,0.4-204.7,0.4c-21.9,0-23.2-1.3-23.2-23.6V825.2L1313,825.2z M1743.7,899.9c0-81.3-63.9-145.2-144.3-145.2
	c-80,0-144.3,63.9-144.8,143.9c-0.4,81.3,63.4,146.1,143.9,146.5C1679,1045.1,1743.3,980.8,1743.7,899.9L1743.7,899.9z
	 M1170.8,828.7v693.2c0,28.9,0,28.9-28.4,28.9c-101.9,0-204.2,1.3-306.1-0.4c-191.6-3.5-348.1-154.4-359.9-345.1
	c-0.9-17.1-1.7-34.5-1.7-51.6v-664c0-70.8,13.1-138.2,49.9-199c72.5-120.2,179.2-183.6,320-186.3c100.1-1.7,200.7-0.4,300.9-0.4
	c24.9,0,25.4,0.4,25.4,26.2L1170.8,828.7L1170.8,828.7z M1052.3,222.5H819.2c-8.3,0-17.1,2.2-25.4,3.9
	c-121.6,26.7-201.6,127.3-201.6,256.3c-0.4,229.2,0,458.8,0,687.9c0,17.5,1.3,35.9,4.4,52.9c24.1,125.1,124.2,207.7,251.5,208.6
	c62.5,0.4,125.1,0,187.6,0c5.2,0,10.9-0.9,16.6-0.9L1052.3,222.5L1052.3,222.5z M711.6,2163.8c-19.2,68.7-37.2,132.5-55.5,196.4
	c-7.9,28-1.3,24.9-32.8,24.9c-18.8,0-42,4.8-54.7-4.4c-11.8-8.7-12.2-33.2-17.1-50.7c-25.8-90.1-51.2-180.6-76.5-270.7
	c-1.3-4.4-1.7-8.7-3.5-16.6c23.6,0,46.4-0.4,68.7,0.4c3.5,0,7.9,8.7,9.2,14c20.1,74.3,39.8,149.1,60.4,227.4
	c3.1-8.7,5.2-14.4,7-20.1c19.7-68.2,39.8-136,59-204.7c3.5-13.1,8.3-18.8,23.2-18.4c43.3,0.9,43.3,0,55.5,41.5
	c17.5,60.4,35.4,120.7,52.9,181.1c1.7,5.2,3.5,10.5,6.6,21.4c3.1-10.9,5.2-17.1,6.6-23.6c17.9-67.8,36.7-136,53.8-204.2
	c3.1-12.7,8.3-16.6,21-16.2c18.4,0.9,36.7,0.4,57.3,0.4c-1.3,6.6-2.2,11.4-3.5,16.2c-29.3,103.6-58.6,206.9-87.5,310.5
	c-3.5,11.8-8.3,17.1-21,16.2c-15.3-1.3-31.1-1.3-46.4,0c-15.3,1.3-21.9-3.9-25.8-19.2c-16.6-62.5-34.5-124.6-51.6-186.7
	C716,2175.2,714.3,2171.7,711.6,2163.8L711.6,2163.8z M1944.9,2043.6h71.3v132.1h156.1v-132.9c23.2,0,44.6-0.4,66,0.9
	c2.6,0,6.6,10.5,6.6,16.2c0.4,83.5,0.4,167.5,0.4,251c0,20.1-0.4,40.2,0,60.4c0.4,10.5-3.5,14.4-14,14c-18.8-0.4-37.6,0-57.7,0
	v-135.1h-157.9v135.1h-62.1c-12.2,0-8.7-10.1-8.7-16.6V2147L1944.9,2043.6L1944.9,2043.6z M117.3,2359.3
	c12.2-22.3,22.7-40.7,31.5-56.9c32.8,8.7,63.4,20.6,95.3,24.5c26.7,3.5,54.2-1.7,81.8-3.9c6.6-0.4,14.4-3.5,18.4-7.9
	c7.4-9.2,17.5-20.6,17.1-30.6c-0.4-8.7-11.8-21.4-21.4-24.9c-23.6-8.3-48.5-12.2-73-18.4c-29.7-7.4-60.4-14-89.2-24.1
	c-30.6-10.5-51.6-31.9-54.7-66c-3.5-36.3,12.2-63.4,42-82.7c36.3-24.1,77-31.9,119.4-30.2c41.5,1.7,81.3,10.5,122,26.7
	c-8.3,20.1-16.2,39.4-23.2,56.9c-30.2-6.6-58.2-15.3-87-18.4c-22.3-2.6-45.5,1.7-68.2,3.9c-5.2,0.4-12.2,2.6-15.7,6.1
	c-6.6,7-15.3,15.7-15.3,24.1c-0.4,7.4,8.3,18.8,15.7,21.4c24.9,8.3,50.7,13.1,76.1,20.1c28,7.4,56.9,14,84,24.1
	c37.2,13.6,61.7,38,61.2,81.8c-0.4,44.6-21,75.7-62.1,91.8c-59.5,23.6-121.1,22.3-182.4,7.4C165.4,2378.1,142.7,2368.1,117.3,2359.3
	L117.3,2359.3z M1813.7,2267.5c18.4,16.2,35.9,31.5,53.4,46.8c-31.9,60.8-117.2,94.9-191.1,77.8c-77.8-17.9-137.3-88.8-139.9-167.1
	c-3.1-87.5,48.1-161.4,129-185.9c76.1-23.2,160.9,7.4,202.9,73.9c-17.5,15.7-35.4,31.5-54.7,48.1c-24.1-34.1-55.5-53.4-97.5-52.5
	c-30.2,0.9-55.5,12.7-76.1,35c-39.4,42.9-35.9,108.5,7.4,147.8C1696.1,2336.1,1758.2,2327.4,1813.7,2267.5L1813.7,2267.5z
	 M1303.4,2116.2h-106.7v-73c5.2-0.4,10.9-0.9,16.6-0.9c84.4,0,168.4,0.4,252.8-0.4c14,0,20.1,3.5,18.8,17.9
	c-1.3,13.1-1.3,26.2,0,39.4c1.3,14.4-4.8,17.5-17.9,17.1c-28.4-0.9-57.3-0.4-88.3-0.4v21.4c0,76.1-0.4,152.2,0.4,228.7
	c0,14-3.1,20.1-17.9,18.8c-13.1-1.3-26.2-1.3-39.4,0c-14.9,1.3-17.9-5.2-17.9-18.8c0.4-75.7,0.4-151.3,0.4-227
	C1303.4,2132.8,1303.4,2126.2,1303.4,2116.2L1303.4,2116.2z M1038.3,2043.6h74.8v340.2h-74.8V2043.6z M2065.6,1861.2
	c0-53.8,43.3-98,96.6-97.5c52.5,0.4,95.3,43.7,95.8,97.1c0.4,53.8-43.7,98-96.6,97.5C2108,1957.4,2066.1,1914.5,2065.6,1861.2z
	 M2216.9,1860.8c0-30.2-26.2-56.4-56.4-55.5c-29.7,0.4-54.2,25.8-54.2,55.5c0,30.2,24.1,55.1,54.2,55.5S2216.9,1890.9,2216.9,1860.8
	z M608.4,1771.1c23.6-5.7,39.4,0,52.9,21c20.1,31.5,44.6,60.4,70,94.9v-116.3h37.2c0.4,6.6,0.9,12.2,0.9,18.4
	c0,46.4,0.4,92.7-0.4,139.1c0,7.9-3.5,22.3-7,22.3c-13.1,1.3-27.6,6.1-38.5-9.6c-21-31.1-44.6-61.2-66.9-91.4
	c-2.6-3.5-5.7-7-11.8-14.9v116.3H608C608.4,1891.4,608.4,1831.5,608.4,1771.1L608.4,1771.1z M294.9,1950c-24.1,7-38.9-0.4-51.6-20.1
	c-21-31.9-45-61.7-70.8-97.1v117.6h-37.2v-179.7c21.4-3.9,38-2.6,51.6,18.4c21,32.4,45.5,62.1,72.6,92.3v-111.1h35.9
	C294.9,1830.6,294.9,1890.1,294.9,1950L294.9,1950z M1593.3,1770.2h36.7v178.9c-27.1,7.4-33.2,5.2-49-16.2c-21-28-41.5-56-62.5-84
	c-3.1-3.9-6.1-7.4-11.8-14v117.2c-10.9,0-20.1,0.9-29.7-0.4c-3.1-0.4-8.3-5.2-8.3-7.9c-0.4-57.3-0.4-114.1-0.4-171
	c29.3-7.9,35-6.1,52,16.6c23.2,31.1,46.4,62.1,73,97.5L1593.3,1770.2L1593.3,1770.2z M1781.8,1860.8c0-25.8-0.4-51.6,0.4-77.4
	c0-4.8,6.1-13.1,9.6-13.1c26.7-0.4,54.2-2.2,80.5,1.7c49.4,7.4,80.9,48.1,77.4,95.8c-3.1,45.9-42,82.7-91,84.4
	c-21,0.9-42.4-0.4-63.9,0.4c-10.5,0.4-14-3.5-14-14C1782.2,1912.4,1781.8,1886.6,1781.8,1860.8L1781.8,1860.8z M1820.3,1860.3v10.5
	c0.9,13.6,1.7,26.7,3.1,40.2c17.1-0.4,34.5,1.3,50.7-1.7c21.9-3.9,37.2-27.6,36.7-50.3c-0.9-23.2-16.6-43.7-39.4-48.1
	c-12.7-2.6-26.2-1.7-39.4-2.6c-9.2-0.4-12.2,3.5-11.8,12.2v39.8H1820.3z M1320,1769.4v35h-101.5v37.2h93.6v34.1h-93.2v41.1h100.6
	v35.9H1218c-38.5,0-38.5,0-38.5-38.9c0-42.4,0.4-84.8-0.4-127.3c0-12.7,3.5-17.1,16.6-16.6C1236.4,1770.2,1277.6,1769.4,1320,1769.4
	L1320,1769.4z M897.1,1809.6v-38.9h151.3v38.5h-54.2v141.7h-39.4c-0.4-5.7-1.3-11.8-1.3-17.9v-91c-0.4-36.7,4.8-31.9-31.5-32.4
	L897.1,1809.6L897.1,1809.6z M432.6,1769.4h23.2c4.4,0,8.7,0.4,14.9,0.9v180.6h-38L432.6,1769.4L432.6,1769.4z"/>
<path class="st0" d="M2331.1,2333.9c23.6-3.5,14.9,21,25.4,28.9c10.9-7,2.2-32.8,26.2-28.4v49.4c-2.2,0.4-3.9,0.9-6.1,1.3
	c-1.3-7.9-3.1-16.2-4.8-24.1c0,0-1.3,0-1.7,0.4c-4.4,7.9-8.3,15.3-12.2,23.2c-6.1-8.7-11.8-17.5-17.9-26.2
	c-0.4,8.3-0.9,17.1-1.3,26.7C2328,2378.1,2325.8,2361.1,2331.1,2333.9L2331.1,2333.9z M2291.7,2347.1c-5.7-2.6-10.5-4.8-15.7-7.4
	c0.4-1.3,0.4-3.1,0.9-4.4h40.7c-4.8,7.4-10.5,14.4-13.1,22.3c-2.6,8.3-2.2,17.9-3.1,26.7c-2.6,0-5.2-0.4-7.4-0.4
	C2293,2372,2292.6,2359.3,2291.7,2347.1L2291.7,2347.1z M1743.7,899.9c0,80.9-64.7,145.2-145.2,144.8
	c-80.5-0.4-144.3-65.2-143.9-146.5c0.4-80,64.7-143.9,144.8-143.9C1679.9,754.3,1743.7,818.6,1743.7,899.9z M1052.3,222.5v1208.8
	c-5.7,0.4-11.4,0.9-16.6,0.9c-62.5,0-125.1,0.4-187.6,0c-127.3-0.9-227-83.1-251.5-208.6c-3.5-17.5-4.4-35.4-4.4-52.9
	c-0.4-229.2-0.4-458.8,0-687.9c0-129,80-229.6,201.6-256.3c8.3-1.7,17.1-3.9,25.4-3.9L1052.3,222.5L1052.3,222.5z M699.4,538.3
	c0,75.7,61.7,137.3,136.4,136.4c74.3-0.9,134.7-61.2,135.1-136.4c0.4-75.2-60.8-136.9-136-137.3C759.8,400.9,699,462.6,699.4,538.3
	L699.4,538.3z M2216.9,1860.8c0,30.2-26.2,56.4-56.4,55.5c-29.7-0.4-54.2-25.4-54.2-55.5s24.5-55.1,54.2-55.5
	C2190.7,1804.3,2216.9,1830.6,2216.9,1860.8z M1820.3,1860.3c0-13.1,0.4-26.2,0-39.4c-0.4-8.7,3.1-12.7,11.8-12.2
	c13.1,0.9,26.7,0,39.4,2.6c22.7,4.4,38.5,24.9,39.4,48.1c0.9,22.3-14.9,45.9-36.7,50.3c-16.6,3.1-33.7,1.3-50.7,1.7
	c-0.9-13.6-2.2-26.7-3.1-40.2C1819.8,1867.3,1820.3,1863.8,1820.3,1860.3z"/>
<path class="st1" d="M699.4,538.3c0-75.7,60.8-137.3,135.6-137.3c75.2,0,136.4,62.1,136,137.3s-60.8,135.6-135.1,136.4
	C761.1,675.6,699.4,613.9,699.4,538.3L699.4,538.3z M2287.8,2341.8v40.2h15.3v-40.2h12.7v-12.7h-42.9v12.7H2287.8z M2325.8,2331.3
	v50.7h10.1v-29.3c0-1.7,2.2-2.2,2.6-0.4l10.9,29.7h10.5l7.9-30.6c0.4-0.9,1.7-0.9,1.7,0v30.6h11.8v-50.7h-13.6l-11.8,32.4
	c-0.4,0.9-1.7,0.9-1.7,0l-10.9-32.4H2325.8L2325.8,2331.3z"/>
</svg>
