<?xml version="1.0" encoding="utf-8"?>
<!-- Generator: Adobe Illustrator 24.0.1, SVG Export Plug-In . SVG Version: 6.00 Build 0)  -->
<svg version="1.1" id="katman_1" xmlns="http://www.w3.org/2000/svg" xmlns:xlink="http://www.w3.org/1999/xlink" x="0px" y="0px"
	 viewBox="0 0 1500 1000" style="enable-background:new 0 0 1500 1000;" xml:space="preserve">
<style type="text/css">
	.st0{fill:#E52528;}
	.st1{fill:#FFFFFF;}
</style>
<path class="st0" d="M1475,666.7c0,22.9-18.6,41.6-41.6,41.6H66.6c-22.9,0-41.6-18.6-41.6-41.6V333.3c0-22.9,18.6-41.6,41.6-41.6
	h1366.9c22.9,0,41.6,18.6,41.6,41.6V666.7L1475,666.7z"/>
<path class="st1" d="M171.3,447.6c0,13,11,24.9,24.9,24.9c14,0,24.9-11,24.9-24.9c0-14.3-11-24.9-24.9-24.9
	C182.2,422.7,171.3,434.7,171.3,447.6z M324.8,369.5h-40.2c-1,0-2.3,1-2.3,2.3v258c0,1,1,2.3,2.3,2.3h40.2
	c36.9,0,67.5-30.6,67.5-66.5V437C392.3,399.8,361.7,369.5,324.8,369.5z M334.5,539.4c-14.3,0-26.3-12-26.3-26.3s12-26.3,26.3-26.3
	s26.3,12,26.3,26.3C360.7,527.4,348.8,539.4,334.5,539.4z M255,369.5h-56.5c-36.9,0-66.5,30.6-66.5,67.5v127.3
	c0,36.9,30.6,66.5,66.5,66.5H255c1,0,2.3-1,2.3-2.3v-257C257.4,370.5,256,369.5,255,369.5z M235.4,610.2h-38.2
	c-12,0-23.9-4.3-32.6-13c-8.6-8.6-13-20.6-13-32.6V437.3c0-12,4.3-23.9,13-32.6s20.6-13,32.6-13h38.2V610.2z M665.6,399.8l35.9,48.9
	h14.3v-74.1h-14.3v47.9l-35.9-47.9h-15.3v73.1h15.3V399.8z M516.3,540.4c-19.6-3.3-32.6-6.6-32.6-16.3c0-11,14.3-15.3,33.9-15.3
	c17.3,0,35.9,6.6,42.5,9.6l9.6-23.9c-6.6-3.3-29.3-11-53.5-11c-29.3,0-62.2,14.3-62.2,41.6c0,21.9,15.3,32.6,55.5,40.2
	c28.3,4.3,43.5,7.6,42.5,19.6c0,6.6-5.3,17.3-36.9,17.3c-24.9,0-43.5-8.6-48.9-13l-13,23.9c6.6,3.3,30.6,14.3,60.8,14.3
	c43.5,0,67.5-15.3,67.5-43.5C579.5,567.6,574.2,550,516.3,540.4z M474.1,399.8l35.9,48.9h14.3v-74.1H509v47.9l-35.9-47.9h-15.3v73.1
	h15.3L474.1,399.8L474.1,399.8z M735.4,586.3l-29.3-100.1h-24.9l-29.3,100.1l-26.3-100.1h-30.6l39.2,138.3h33.9l26.3-91.4l26.3,91.4
	h33.9l39.2-138.3h-30.6L735.4,586.3z M596.1,374.8h-16.3V448h16.3V374.8z M826.8,624.2h30.6V485.9h-30.6V624.2z M1285.5,372.5
	c-21.9,0-39.2,17.3-39.2,39.2c0,21.9,17.3,39.2,39.2,39.2c21.9,0,39.2-17.3,39.2-39.2C1323.4,390.1,1306.1,372.5,1285.5,372.5z
	 M1285.5,434.7c-13,0-22.9-9.6-22.9-22.9c0-13.3,9.6-22.9,22.9-22.9c13,0,22.9,9.6,22.9,22.9
	C1308.1,423.7,1297.5,434.7,1285.5,434.7z M1289.8,540.4h-64.2v-54.5h-28.3v138.3h28.3v-55.5h64.2v55.5h28.3V485.9h-28.3V540.4z
	 M1365,605.9l-4.3,14.3l-4.3-14.3h-5.3v18.6h3.3v-14.3l5.3,14.3l0,0h3.3l0,0l5.3-14.3v14.3h3.3v-18.6H1365z M1161.2,374.8h-30.6V448
	h30.6c20.6,0,38.2-16.3,38.2-36.9C1198.1,391.1,1181.8,374.8,1161.2,374.8z M1161.2,432.7h-16.3v-42.5h16.3c12,0,21.9,9.6,21.9,21.9
	S1173.2,432.7,1161.2,432.7z M1331.1,608.9h5.3v15.3h3.3v-15.3h5.3v-3.3h-15.3v3.3H1331.1z M1104.7,512.1c15.3,0,30.6,8.6,38.2,21.9
	l22.9-19.6c-14.3-20.6-36.9-32.6-60.8-32.6c-40.2,0-74.1,32.6-74.1,74.1c0,40.2,32.6,74.1,74.1,74.1c24.9,0,47.9-12,60.8-32.6
	l-22.9-19.6c-7.6,13-22.9,21.9-38.2,21.9c-23.9,0-43.5-19.6-43.5-43.5S1080.8,512.1,1104.7,512.1z M942.5,434.7h-42.5v-17.3h39.2
	v-13h-39.2v-15.3h42.5v-14.3H886V448h56.5V434.7z M891.3,515.5h44.5v109h29.3v-109h43.5v-29.3H890.9v29.3H891.3z M831.1,374.8h-62.2
	v15.3h23.9V448h15.3v-57.8h22.9V374.8L831.1,374.8z M1068.8,449v-74.1h-15.3v47.9l-35.9-47.9h-15.3V448h15.3v-48.9l35.9,48.9
	L1068.8,449L1068.8,449z"/>
</svg>
