<?xml version="1.0" encoding="utf-8"?>
<!-- Generator: Adobe Illustrator 24.0.1, SVG Export Plug-In . SVG Version: 6.00 Build 0)  -->
<svg version="1.1" id="svg2" xmlns="http://www.w3.org/2000/svg" xmlns:xlink="http://www.w3.org/1999/xlink" x="0px" y="0px"
	 viewBox="0 0 1500 1000" style="enable-background:new 0 0 1500 1000;" xml:space="preserve">
<style type="text/css">
	.st0{fill:#009AC7;}
	.st1{fill:#8B8B8B;}
</style>
<g id="Capa_x0020_1" transform="translate(-5.825 -5.621)">
	<g id="_56610944">
		<path id="_56666168" class="st0" d="M1202.7,439.1c0,99,116.8,84.8,116.8,15.6V290.8h-116.8V439.1L1202.7,439.1z"/>
		<path id="_56603080" class="st0" d="M1041.6,543c0,48.8,33.7,78,83.2,78h280.7c41.8,0,75.5-28.7,75.5-70.2V345.5
			c0-24.9-18.5-52-41.6-52h-65.1v168.8c0,128.3-223.5,127.3-223.5,2.7V290.8h-49.5c-32.3,0-59.9,20.4-59.9,52L1041.6,543L1041.6,543
			z"/>
		<path id="_56604928" class="st1" d="M653,339.5c0,26.6,22.4,49.1,50.5,49.1c29.5,0,52.6-21.8,52.6-49.1
			c0-27.4-23.1-49.1-52.6-49.1C675.5,290.2,653,312,653,339.5z"/>
		<path id="_56605920" class="st1" d="M748.4,718.5V437h-86.9v281.5L748.4,718.5L748.4,718.5z"/>
		<path id="_56605848" class="st1" d="M829.3,339.5c0,26.6,23.1,49.1,51.3,49.1c28.7,0,52-21.8,52-49.1c0-27.4-23.1-49.1-52-49.1
			C852.4,290.2,829.3,312,829.3,339.5z"/>
		<path id="_56607936" class="st1" d="M924.7,718.5V437h-87.1v281.5L924.7,718.5L924.7,718.5z"/>
		<path id="_56607472" class="st1" d="M523.1,314.1l-75.9,298.3c0,0-58.2-223.9-68.2-256.3c-9.2-31.6-28.7-45.5-56.2-45.5
			c-28.1,0-47,14.2-57,45.5c-9.1,32.2-67.3,256.3-67.3,256.3l-76.3-298.3H31c0,0,87.8,318.1,99.8,355.3c9.2,28.7,31.6,52,63.8,52
			c37.8,0,55.5-27.4,63.2-52c8.5-25.3,65.3-235.2,65.3-235.2s57,210,64.7,235.2c8.5,24.5,26,52,63.2,52c33.1,0,54.7-23.1,64.7-52
			c11.8-37.2,99.8-355.3,99.8-355.3L523.1,314.1L523.1,314.1z"/>
	</g>
</g>
</svg>
