<?xml version="1.0" encoding="utf-8"?>
<!-- Generator: Adobe Illustrator 24.0.1, SVG Export Plug-In . SVG Version: 6.00 Build 0)  -->
<svg version="1.1" id="svg2" xmlns="http://www.w3.org/2000/svg" xmlns:xlink="http://www.w3.org/1999/xlink" x="0px" y="0px"
	 viewBox="0 0 2500 2500" style="enable-background:new 0 0 2500 2500;" xml:space="preserve">
<style type="text/css">
	.st0{fill:#009AC7;}
	.st1{fill:#8B8B8B;}
</style>
<g id="Capa_x0020_1" transform="translate(-5.825 -5.621)">
	<g id="_56610944">
		<path id="_56666168" class="st0" d="M2026.2,1140.7c0,170.6,201.4,146.2,201.4,26.9V885.1h-201.4L2026.2,1140.7L2026.2,1140.7z"/>
		<path id="_56603080" class="st0" d="M1748.4,1319.9c0,84.2,58.1,134.4,143.4,134.4h483.9c72,0,130.1-49.5,130.1-121.1V979.4
			c0-43-31.9-89.6-71.7-89.6h-112.2v291c0,221.1-385.3,219.4-385.3,4.7V885.1h-85.3c-55.6,0-103.2,35.1-103.2,89.6L1748.4,1319.9
			L1748.4,1319.9z"/>
		<path id="_56604928" class="st1" d="M1078.5,969c0,45.9,38.7,84.6,87.1,84.6c50.9,0,90.7-37.6,90.7-84.6
			c0-47.3-39.8-84.6-90.7-84.6C1117.2,884,1078.5,921.7,1078.5,969z"/>
		<path id="_56605920" class="st1" d="M1243,1622.4v-485.3h-149.8v485.3H1243z"/>
		<path id="_56605848" class="st1" d="M1382.4,969c0,45.9,39.8,84.6,88.5,84.6c49.5,0,89.6-37.6,89.6-84.6
			c0-47.3-39.8-84.6-89.6-84.6C1422.2,884,1382.4,921.7,1382.4,969z"/>
		<path id="_56607936" class="st1" d="M1546.9,1622.4v-485.3h-150.2v485.3H1546.9z"/>
		<path id="_56607472" class="st1" d="M854.5,925.3l-130.8,514.3c0,0-100.4-386-117.6-441.9c-15.8-54.5-49.5-78.5-96.8-78.5
			c-48.4,0-81,24.4-98.2,78.5c-15.7,55.5-116.1,441.9-116.1,441.9L163.5,925.3H6.1c0,0,151.3,548.4,172,612.5
			c15.8,49.5,54.5,89.6,110,89.6c65.2,0,95.7-47.3,109-89.6c14.7-43.7,112.5-405.4,112.5-405.4s98.2,362,111.5,405.4
			c14.7,42.3,44.8,89.6,109,89.6c57,0,94.3-39.8,111.5-89.6c20.4-64.2,172-612.5,172-612.5H854.5L854.5,925.3z"/>
	</g>
</g>
</svg>
