<?xml version="1.0" encoding="utf-8"?>
<!-- Generator: Adobe Illustrator 24.0.1, SVG Export Plug-In . SVG Version: 6.00 Build 0)  -->
<svg version="1.1"
	 id="svg28629" xmlns:cc="http://creativecommons.org/ns#" xmlns:dc="http://purl.org/dc/elements/1.1/" xmlns:rdf="http://www.w3.org/1999/02/22-rdf-syntax-ns#" xmlns:svg="http://www.w3.org/2000/svg"
	 xmlns="http://www.w3.org/2000/svg" xmlns:xlink="http://www.w3.org/1999/xlink" x="0px" y="0px" viewBox="0 0 1500 1000"
	 style="enable-background:new 0 0 1500 1000;" xml:space="preserve">
<style type="text/css">
	.st0{fill:#0099CF;stroke:#FFFFFF;stroke-width:4.7244;stroke-miterlimit:2.2595;stroke-opacity:0.9905;}
	.st1{fill:#FFFFFF;}
	.st2{fill-rule:evenodd;clip-rule:evenodd;fill:#0099CF;stroke:#EFFFFF;stroke-width:4.7244;stroke-miterlimit:2.2595;}
</style>
<path id="path27283" d="M1422.5,498.1H1317v27.7l-26.6-27.7h-88.1c0.4-14.7-2.1-40.4-8.4-41.4c8.4-10.6,7.4-26.2,7.4-37.8
	c0-17.6-8.9-33.1-20.3-44.7l-50.9-50.9c-11.4-11.5-27.1-18.6-44.4-18.6H950.6c-24.9,0-41.5,11.4-50.7,26.7l-7.9-7.9
	c-12-11.6-28.6-18.8-46.9-18.8H650.9v16.5c-12.5-12.1-30.3-19.7-50-19.7c-34.9,0-63.7,23.7-68,54.2l-27.4-9l38.9-37.7l-50.1-7.8
	l49.1-65.8L459.2,265l0.2-43.8l-51.1,25.6L393,184.3l-43.6,64.3L312,224.5l-20,43.3l-65.4-25.2l17.3,59.2l-53.7,9l20.2,36.5
	l-83,26.9l69.4,22.8L158,434.8l50.1,7.8L169,495.1c-3.2-0.5-6.4-0.8-9.8-0.8c-12.5,0-24.4,3.6-34.7,10.3
	c-10.3-6.7-22.1-10.3-34.7-10.3C54.1,494.3,25,524,25,560.5v200.9l50.9,50.9h497.6v-19.4c12.6,13.9,31.1,22.7,51.6,22.7
	c22,0,41.7-10.1,54.2-25.8l22.5,22.5h75V812c12.4-1.1,23.8-5.2,33.4-11.5l11.8,11.8h137.1v-19.4c12.6,13.9,31,22.7,51.6,22.7
	c25,0,46.9-13,58.8-32.3l12,12c12.5,12.5,30,20.3,49.3,20.3c15.6,0,29.9-5,41.4-13.5l13.9,11.4h75.7v-34.8
	c34.3,30.2,65.8,39.2,100.8,36.6c84.6-6.3,109.6-70.4,112.3-108.2c0.2-61.2,0-154.4,0-154.4L1422.5,498.1z"/>
<path id="path27287" d="M473.3,389l60.5-19.6l-52.4-17.2l35.6-34.5l-45.7-7.2l36.7-49.2L446.2,283l0.2-41.1l-46.9,23.5l-12.3-50
	l-34.5,50.9l-35.5-22.9L298.5,284l-52.4-20.2l14.1,48.2l-50.1,8.4l19,34.3l-60.5,19.6l52.4,17.2L185.4,426l45.7,7.1l-36.7,49.2
	l61.8-21.7l-0.2,41.1l46.8-23.4l12.3,50l34.5-50.8l35.5,22.9l18.9-40.8l52.4,20.2l-14.1-48.2l50.1-8.4L473.3,389z"/>
<path id="path27291" class="st0" d="M318,511.6l-10.6-43.2l-44.5,22.2l0.2-39.6l-49.6,17.4l30-40.2l-43.4-6.8l33.9-32.8l-43.1-14.2
	l48.3-15.7l-18.3-33.1l48.1-8.1l-12.3-42.3l45.4,17.5l18.3-39.5l34.5,22.2l29.5-43.5l10.6,43.3l44.5-22.3l-0.2,39.7l49.6-17.4
	l-30,40.2l43.3,6.8L468.3,355l43.1,14.2L463.2,385l18.3,33.1l-48.1,8.1l12.4,42.3L400.4,451L382,490.3l-34.5-22.2L318,511.6z"/>
<path id="path27303" class="st1" d="M368.4,341.1l-19.7,2.2c-8.9,1-18.1,8.2-20.7,16.2l-11.5,36.3c-2.5,7.9,2.6,13.6,11.5,12.6
	c0,0,33.5-3.7,34.5-3.9c0.3-0.9,4.8-15.1,5.1-16c-1,0.1-32.7,3.7-32.7,3.7l2.7-8.6l17.9-2c8.9-1,18.1-8.3,20.7-16.1l3.7-11.8
	C382.5,345.7,377.3,340.1,368.4,341.1 M358.9,365.8l-16.1,1.8l0.1-0.5l2.6-8.1l16.1-1.8L358.9,365.8z M310.8,326.6
	c-0.3,0.9-17.3,54.5-17.3,54.5s-7.2-51.4-7.4-51.7c-0.5,0.1-17.2,1.9-18.2,2c-0.3,0.9-27,85.3-27.3,86.2c1-0.1,16.9-1.9,17.9-2
	c0.3-0.9,17.3-54.1,17.3-54.1l7.7,51.3c0,0,0.3-0.9,0,0c1-0.1,16.9-1.9,17.9-2c0.3-0.9,27-85.2,27.3-86.2
	C327.7,324.7,311.8,326.5,310.8,326.6 M447.3,332.1c-0.3,0.9-11.2,35.3-11.2,35.3c-3.1,10.3-10.6,17.6-10.6,17.6s-3.2-5.9,0.1-16.4
	c0,0,11.1-35.1,11.2-35.3c-1,0.1-16,1.8-17,1.9c-0.1,0.2-11.2,35.3-11.2,35.3C405.4,379.9,398,388,398,388s-2.5-8,0.1-16.3
	c0,0,10.8-34.2,11.1-35.1c-1,0.1-16,1.8-17,1.9c-0.3,0.9-11.1,35.1-11.1,35.1c-4.3,13.6,0.8,23.4,3.6,28.1l19.3-2.1l1.1-1l4.4-4.8
	l1.8,3.8l0.7,1.1l19.5-2.2c15.5-11.7,17.3-17.3,21.6-30.9c0,0,10.9-34.4,11.2-35.3C463.3,330.3,448.3,332,447.3,332.1"/>
<path id="path27305" class="st1" d="M1148.5,744.5h41.2v-46h-41.2V744.5z"/>
<path id="path27317" class="st1" d="M771.1,604.2L771.1,604.2v-43.7c0-25.4-23.1-46-51.6-46h-51.6v230H709v-184h20.9v46h-10.5v46
	h10.5v46h-10.5v46c28.5,0,51.6-20.6,51.6-46l0,0h0.1v-43.7l0,0c0-17-12.9-25.3-12.9-25.3S771.1,621.1,771.1,604.2"/>
<path id="path27321" class="st1" d="M959.8,511.2c-28.5,0-51.6,22.1-51.6,49.3v138c0,27.2,23.1,49.3,51.6,49.3s51.6-22.1,51.6-49.3
	v-138C1011.4,533.2,988.3,511.2,959.8,511.2 M970.3,698.5h-20.9v-138h20.9V698.5z"/>
<path id="path27325" class="st1" d="M891.3,604.2L891.3,604.2v-43.7c0-25.4-23.1-46-51.6-46H788v230h41.2v-184h20.9v46h-10.5v46
	h10.5v92h41.2v-89.7l0,0c0-17-12.9-25.3-12.9-25.3S891.3,621.1,891.3,604.2"/>
<path id="path27329" class="st1" d="M1080,511.2c-28.5,0-51.6,22.1-51.6,49.3v40.2c0,42.1,62.1,38.7,62.1,68.3v29.5h-20.9v-46h-41.2
	v46c0,27.2,23.1,49.3,51.6,49.3s51.6-22.1,51.6-49.3v-40.3c0-42-62.1-38.5-62.1-68.2v-29.5h20.9v46h41.2v-46
	C1131.6,533.2,1108.5,511.2,1080,511.2"/>
<path id="path27353" class="st1" d="M275.8,511.2c-28.5,0-51.6,22.1-51.6,49.3v184h41.2v-46h20.9v46h41.2v-184
	C326.7,534.1,309.4,511.2,275.8,511.2L275.8,511.2z M286.3,652.5h-20.9v-92h20.9V652.5z"/>
<path id="path27357" class="st1" d="M845.2,321.5H788v140.7h42.5v-98.7h14.8v51.8c27.2,0,49.3-21,49.3-46.9
	C894.5,342.5,872.4,321.5,845.2,321.5"/>
<path id="path27361" class="st1" d="M719.5,465.3c28.5,0,51.6-20.2,51.6-45.1v-98.7h-44.2v98.7h-14.8v-98.7h-44.2v98.7
	C667.8,445.1,690.9,465.3,719.5,465.3"/>
<path id="path27363" class="st1" d="M964.3,409.2h47.1v-34.7h-47.1V409.2z"/>
<path id="path27375" class="st1" d="M950.6,321.5c-30,0-42.5,21.1-42.5,42v56.7c0,20.9,12.5,42,42.5,42h60.8V423h-60.8v-62.2h60.8
	v-39.2L950.6,321.5L950.6,321.5L950.6,321.5z"/>
<path id="path27379" class="st1" d="M1117.5,402.1c8.7-8.5,14.1-20.5,14.1-33.7c0-25.9-20.6-46.9-46-46.9h-57.2v140.7h42.5v-98.7
	h14.8v98.7h46v-34.6c0-0.1,0-0.2,0-0.3C1131.6,417.4,1126.2,408.5,1117.5,402.1"/>
<path id="path27381" class="st1" d="M464.5,744.5h41.2v-230h-41.2V744.5z"/>
<path id="path27393" class="st1" d="M574.2,511.2c-28.5,0-51.6,22.1-51.6,49.3v138c0,27.2,23.1,49.3,51.6,49.3s51.6-22.1,51.6-49.3
	v-138C625.8,533.2,602.7,511.2,574.2,511.2 M584.7,698.5h-20.9v-138h20.9V698.5z"/>
<path id="path27397" class="st1" d="M447.6,604.2L447.6,604.2v-43.7c0-25.4-23.1-46-51.6-46h-51.6v230h41.2v-184h20.9v46H396v46
	h10.5v92h41.2v-89.7l0,0c0-17-12.9-25.3-12.9-25.3S447.6,621.1,447.6,604.2"/>
<path id="path27401" class="st1" d="M652.5,363.4c0-24.9-23.1-45.1-51.6-45.1s-51.6,20.2-51.6,45.1l0,0c0,24.7,18.1,43,44.1,43h15.1
	v13.8h-59.2c0,24.9,23.1,45.1,51.6,45.1s51.6-20.2,51.6-45.1c0-24.7-18.1-43-44.1-43h-15.1v-13.8H652.5L652.5,363.4z"/>
<path id="path27405" class="st1" d="M159.2,511.2c-13.6,0-25.9,5.8-34.7,15.2c-8.7-9.4-21-15.2-34.7-15.2c-26.5,0-48,22.1-48,49.3
	v184H83v-184h21v184h41.2v-184h20.9v184h41.2v-184C207.3,533.2,185.8,511.2,159.2,511.2"/>
<path id="path27409" class="st1" d="M1147.3,531.1h2.1v-10.4h3.9v-1.9h-9.9v1.9h3.9V531.1z"/>
<path id="path27413" class="st1" d="M1161.1,528.4L1161.1,528.4l-3.4-9.6h-3V531h2v-9.4l0,0l3.4,9.4h1.8l3.4-9.4l0,0v9.4h2v-12.2h-3
	L1161.1,528.4z"/>
<path id="path5383" class="st2" d="M1271.7,518.8h-62.5v134.1c0,68.3,59.4,93.1,99,92.8c60-0.4,94.9-45.5,95.1-86.7l0.6-140.2h-64.5
	l-0.3,131.5c-0.1,28-21,36.6-32.5,36.6c-8.6,0-34.4-8.2-34.5-37.2L1271.7,518.8z"/>
</svg>
