<?xml version="1.0" encoding="utf-8"?>
<!-- Made by Synel - SVG Version: 6.00 Build 0)  -->
<svg version="1.1" id="Calque_1" xmlns="http://www.w3.org/2000/svg" xmlns:xlink="http://www.w3.org/1999/xlink" x="0px" y="0px"
	 viewBox="0 0 36 36" style="enable-background:new 0 0 36 36;" xml:space="preserve">
<style type="text/css">
	.st0{fill:#00C8D4;}
</style>
<path class="st0" d="M17,27c-1.7,0-3-1.3-3-3v-4c0-1.7,1.3-3,3-3c0.6,0,6-1,6-5c0-2-2-4-5-4c-2.4,0-4,2-4,3c0,1.7-1.3,3-3,3
	s-3-1.3-3-3c0-4.9,4.6-9,10-9c8,0,11,6,11,11c0,4.1-2.3,7.3-6.4,8.9c-0.9,0.4-1.8,0.6-2.6,0.7V24C20,25.7,18.7,27,17,27z"/>
<circle class="st0" cx="17" cy="32" r="3"/>
</svg>
