<?xml version="1.0" encoding="utf-8"?>
<!-- Made by Synel - SVG Version: 6.00 Build 0)  -->
<svg version="1.1" xmlns="http://www.w3.org/2000/svg" xmlns:xlink="http://www.w3.org/1999/xlink" x="0px" y="0px"
	 viewBox="0 0 512 512" style="enable-background:new 0 0 512 512;" xml:space="preserve">
<style type="text/css">
	.st0{fill:#CACBC9;}
	.st1{fill:#838183;}
	.st2{fill:#FF5A5F;}
	.st3{fill:#55A0FF;}
	.st4{fill:#3EDA3E;}
</style>
<g>
	<path class="st0" d="M256,496c-64.1,0-124.4-25-169.7-70.3S16,320.1,16,256c0-64.1,25-124.4,70.3-169.7C131.6,41,191.9,16,256,16
		c64.1,0,124.4,25,169.7,70.3C471,131.6,496,191.9,496,256c0,64.1-25,124.4-70.3,169.7C380.4,471,320.1,496,256,496z"/>
	<path class="st1" d="M256,32c30.3,0,59.6,5.9,87.2,17.6c26.7,11.3,50.6,27.4,71.2,48c20.6,20.6,36.7,44.5,48,71.2
		c11.7,27.6,17.6,56.9,17.6,87.2c0,30.3-5.9,59.6-17.6,87.2c-11.3,26.7-27.4,50.6-48,71.2c-20.6,20.6-44.5,36.7-71.2,48
		C315.6,474.1,286.3,480,256,480c-30.3,0-59.6-5.9-87.2-17.6c-26.7-11.3-50.6-27.4-71.2-48c-20.6-20.6-36.7-44.5-48-71.2
		C37.9,315.6,32,286.3,32,256c0-30.3,5.9-59.6,17.6-87.2c11.3-26.7,27.4-50.6,48-71.2c20.6-20.6,44.5-36.7,71.2-48
		C196.4,37.9,225.7,32,256,32 M256,0L256,0C114.6,0,0,114.6,0,256v0c0,141.4,114.6,256,256,256h0c141.4,0,256-114.6,256-256v0
		C512,114.6,397.4,0,256,0L256,0z"/>
</g>
<g>
	<path class="st2" d="M261,123.6c23.4,0,42.4,19,42.4,42.4c0,23.4-19,42.4-42.4,42.4c-23.4,0-42.4-19-42.4-42.4
		C218.6,142.6,237.6,123.6,261,123.6 M261,95.6L261,95.6c-38.9,0-70.4,31.5-70.4,70.4v0c0,38.9,31.5,70.4,70.4,70.4h0
		c38.9,0,70.4-31.5,70.4-70.4v0C331.4,127.1,299.9,95.6,261,95.6L261,95.6z"/>
</g>
<g>
	<path class="st3" d="M172.9,294.2L184,349l-48.2-12.9L172.9,294.2 M189.1,233.6L84.9,351.4l-0.4-0.1l136,36.4L189.1,233.6
		L189.1,233.6z"/>
</g>
<g>
	<path class="st4" d="M375.4,273.2l17,46.6l-79.7,29l-17-46.6L375.4,273.2 M392.1,237.3l-132.3,48.2l36.1,99.2l132.3-48.2
		L392.1,237.3L392.1,237.3z"/>
</g>
</svg>
