<?xml version="1.0" encoding="utf-8"?>
<!-- Generator: Adobe Illustrator 24.0.1, SVG Export Plug-In . SVG Version: 6.00 Build 0)  -->
<svg version="1.1" id="Calque_1" xmlns="http://www.w3.org/2000/svg" xmlns:xlink="http://www.w3.org/1999/xlink" x="0px" y="0px"
	 viewBox="0 0 512 512" style="enable-background:new 0 0 512 512;" xml:space="preserve">
<style type="text/css">
	.st0{opacity:0.5;fill:#E686C6;}
	.st1{fill:#FB86F1;}
	.st2{fill:none;stroke:#E2FF90;stroke-width:24;stroke-miterlimit:10;}
	.st3{fill:none;stroke:#9AFEFF;stroke-width:24;stroke-miterlimit:10;}
	.st4{fill:none;stroke:#FCA66C;stroke-width:24;stroke-miterlimit:10;}
</style>
<path class="st0" d="M451.7,195.2c-45.5-2.2-75.2-48.7-57.9-90.9c10.7-26.2-21.5-48.7-42.4-29.7c-33.7,30.6-87.6,18.7-105.2-23.3
	c-10.9-26.1-49.6-19.3-51,9c-2.2,45.5-48.7,75.2-90.9,57.9c-26.2-10.7-48.7,21.5-29.7,42.4c30.6,33.7,18.7,87.6-23.3,105.2
	c-26.1,10.9-19.3,49.6,9,51c45.5,2.2,75.2,48.7,57.9,90.9c-10.7,26.2,21.5,48.7,42.4,29.7c33.7-30.6,87.6-18.7,105.2,23.3
	c10.9,26.1,49.6,19.3,51-9c2.2-45.5,48.7-75.2,90.9-57.9c26.2,10.7,48.7-21.5,29.7-42.4c-30.6-33.7-18.7-87.6,23.3-105.2
	C486.8,235.3,480,196.5,451.7,195.2z"/>
<g>
	<path class="st1" d="M448,158.6c-17.8-0.8-29.4-19.1-22.6-35.5c25.9-63.2-51.9-117.7-102.4-71.7c-13.2,12-34.3,7.3-41.1-9.1
		c-13.2-31.5-43.2-43.1-70.3-38.4s-51.3,26-52.9,60.1c-0.8,17.8-19.1,29.4-35.5,22.6C59.9,60.7,5.4,138.5,51.4,189.1
		c12,13.2,7.3,34.3-9.1,41.1c-31.5,13.2-43.1,43.2-38.4,70.3c4.8,27.1,26,51.3,60.1,52.9c17.8,0.8,29.4,19.1,22.6,35.5
		c-25.9,63.2,51.9,117.7,102.4,71.7c13.2-12,34.3-7.3,41.1,9.1c13.2,31.5,43.2,43.1,70.3,38.4c27.1-4.8,51.3-26,52.9-60.1
		c0.8-17.8,19.1-29.4,35.5-22.6c63.2,25.9,117.7-51.9,71.7-102.4c-12-13.2-7.3-34.3,9.1-41.1c31.5-13.2,43.1-43.2,38.4-70.3
		S482.2,160.3,448,158.6z M454.9,246.5c-40.8,17.1-52.5,69.5-22.7,102.2c18.5,20.3-3.4,51.6-28.9,41.2c-41-16.8-86.2,12-88.3,56.3
		c-1.3,27.5-38.9,34.1-49.6,8.7c-17.1-40.8-69.5-52.5-102.2-22.7c-20.3,18.5-51.6-3.4-41.2-28.9c16.8-41-12-86.2-56.3-88.3
		c-27.5-1.3-34.1-38.9-8.7-49.6c40.8-17.1,52.5-69.5,22.7-102.2c-18.5-20.3,3.4-51.6,28.9-41.2c41,16.8,86.2-12,88.3-56.3
		c1.3-27.5,38.9-34.1,49.6-8.7c17.1,40.8,69.5,52.5,102.2,22.7c20.3-18.5,51.6,3.4,41.2,28.9c-16.8,41,12,86.2,56.3,88.3
		C473.7,198.2,480.3,235.8,454.9,246.5z"/>
</g>
<path class="st2" d="M284.7,234.7l-63,11.1c-13,2.3-25.5-6.5-27.8-19.5l-11.1-63c-2.3-13,6.5-25.5,19.5-27.8l63-11.1
	c13-2.3,25.5,6.5,27.8,19.5l11.1,63C306.5,219.9,297.7,232.4,284.7,234.7z"/>
<circle class="st3" cx="197.6" cy="339.4" r="56"/>
<path class="st4" d="M340.3,359.4L279.9,288c-4-4.7-1.4-12,4.7-13l92.8-16.4c6.1-1.1,11,4.9,8.9,10.6L353.9,357
	C351.8,362.7,344.3,364,340.3,359.4z"/>
</svg>
